<?xml version="1.0" encoding="utf-8"?>
<!-- Generator: Adobe Illustrator 19.0.0, SVG Export Plug-In . SVG Version: 6.00 Build 0)  -->
<svg version="1.1" id="Layer_1" xmlns="http://www.w3.org/2000/svg" xmlns:xlink="http://www.w3.org/1999/xlink" x="0px" y="0px"
	 viewBox="113 -48.5 425.2 297.5" style="enable-background:new 113 -48.5 425.2 297.5;" xml:space="preserve">
<style type="text/css">
	.st0{fill:none;}
	.st1{fill:#1755A5;}
	.st2{fill:#112B46;}
	.st3{fill:#21496D;}
	.st4{fill:#495DEA;}
	.st5{fill:#FFFFFF;}
	.st6{fill:#606BF1;}
	.st7{fill:#20318D;}
	.st8{fill:#FFC8AF;}
	.st9{fill:#7181F4;}
	.st10{fill:#F4AE92;}
	.st11{fill:#EC827D;}
	.st12{fill:#FBD15B;}
	.st13{fill:#83C9FF;}
	.st14{fill:#56548C;}
	.st15{enable-background:new    ;}
	.st16{fill:#A3D8EF;}
	.st17{fill:#CEE9F4;}
	.st18{fill:#6CC6E5;}
	.st19{fill:#BEE1F4;}
	.st20{fill:#D86868;}
	.st21{fill:#D34C4C;}
	.st22{fill:#F49898;}
	.st23{fill:#EFBC3F;}
	.st24{fill:#FFDC85;}
	.st25{fill:#F2AD91;}
	.st26{fill:#A5B7C6;}
	.st27{fill:#B6C7D3;}
	.st28{fill:#878CF0;}
	.st29{fill:#CCD9E2;}
	.st30{fill:#EEEEEE;}
	.st31{fill:#879FAF;}
	.st32{fill:#00C3B6;}
	.st33{fill:#CECCFF;}
	.st34{fill:#EAEEEF;}
	.st35{fill:#303072;}
	.st36{fill:#46467F;}
</style>
<path class="st0" d="M339.9,86.1c0-0.2,0.1-0.3,0.3-0.3c0.2,0,0.3,0.1,0.3,0.3s-0.1,0.4-0.3,0.4C340,86.5,339.9,86.4,339.9,86.1
	L339.9,86.1z"/>
<path class="st0" d="M339.9,80.9c0-0.2,0.1-0.3,0.3-0.3c0.2,0,0.3,0.1,0.3,0.3s-0.1,0.4-0.3,0.4C340,81.3,339.9,81.2,339.9,80.9
	L339.9,80.9z"/>
<path class="st0" d="M339.9,75.7L339.9,75.7c0-0.3,0.1-0.4,0.3-0.4c0.2,0,0.3,0.1,0.3,0.3c0,0.2-0.1,0.4-0.3,0.4
	C340,76,339.9,75.9,339.9,75.7z"/>
<path class="st0" d="M339.9,78.3c0-0.2,0.1-0.3,0.3-0.3c0.2,0,0.3,0.1,0.3,0.3v0.1c0,0.1-0.1,0.3-0.3,0.3
	C340,78.7,339.9,78.6,339.9,78.3L339.9,78.3z"/>
<path class="st0" d="M339.9,83.5c0-0.2,0.1-0.3,0.3-0.3c0.2,0,0.3,0.1,0.3,0.3v0.1c0,0.2-0.1,0.3-0.3,0.3
	C340,83.9,339.9,83.8,339.9,83.5L339.9,83.5z"/>
<path class="st0" d="M538.2-48.5v248.9H498c3.9-2.2,7.4-4.7,10.3-7.5c1-0.9,1.9-1.9,2.8-2.9l-12.1-7.2c-2.2-1.3-2.4-3.2-0.5-4.3
	l8.2-4.7l-4.6-2.8c-1.9,0.7-4.7,0.4-6.6-0.6l-14.1-8.4c-2.2-1.3-2.4-3.2-0.5-4.3l12.8-7.3l-3.5-2.1l-11.8,6.6l-9.9,5.5l-3.5,2
	l-9.6,5.3l-1.9,1l-26,14.5c-5.7,3.3-15.7,2.9-22.2-0.9l-38.6-22.2l-2.2-1.3v22.6c0.1,0.7-0.3,1.4-1.1,1.9L340,196.8
	c-0.8,0.4-1.9,0.6-3.1,0.6v-42.7h-0.1v42.7c-1.2,0-2.5-0.3-3.5-0.9l-22.2-12.8c-1.2-0.7-1.8-1.7-1.6-2.5V139
	c0.1,0.7,0.7,1.4,1.6,1.9l22.2,12.8c0.1,0,0.1,0,0.2,0.1c0,0-0.1-0.1-0.1-0.1l-22.2-12.8c-2-1.1-2.2-2.8-0.5-3.8l8.6-5
	c-0.5-0.9-1-1.9-1.5-2.9c-0.7-1.5-1.2-3-1.7-4.5c-0.8-2.6-1.2-5.1-1.2-7.6c0-0.8,0-1.5,0.1-2.2c0-0.5,0.1-0.9,0.2-1.3
	c0.4-2.2,1.4-4,2.6-5.3c0.5-0.5,1.2-1,1.8-1.3h0.1l5.1-2.9v-0.8c-0.5-2.4,0.8-4.8,3.8-6.5l14.2-8l6.7-3.7l0.7-0.4V67.5l-10,5.8
	c0,0.1-0.1,0.1-0.2,0.1l-2.9,1.7l-0.2,0.1l-14.2,8.2c-0.2,0.1-0.4,0.2-0.7,0.2c-0.6,0-1.3-0.5-1.3-1.3V53.9c0-0.5,0.3-0.9,0.7-1.2
	l0.2-0.1l12-6.9v-28l-2.7,1.4l-1.6,0.9v25.4c0,0,0,0-0.1,0c-0.1,0-0.2-0.1-0.2-0.2V19.7h0.1l1.5-0.8l3-1.6l0,0v-5.2
	c-0.4-0.5-0.8-1.1-1.2-1.6v0c-1.2-1.7-2.4-3.3-3.5-4.9c-0.3-0.4-0.5-0.7-0.8-1.1L309,15.6c-0.3,0.1-0.6,0.2-0.8,0.2
	c-0.7,0-1.5-0.6-1.5-1.5v-32c0-0.5,0.3-1,0.8-1.3l5.5-3.2c-4.4-9-7.8-17.8-10.5-26.3H538.2z"/>
<g id="XMLID_518_">
	<g id="XMLID_519_">
		<path class="st1" d="M538.2-48.5v269.2c-2.1-3.4-4.6-6.6-7.4-9.7c-3.2-3.6-7-7-11-10.1c-0.2-0.2-0.4-0.3-0.6-0.4
			c-1.2-0.9-2.4-1.9-3.7-2.7c-2.1-1.5-4.4-3.1-6.7-4.4c-0.2-0.1-0.4-0.3-0.6-0.4c-1.4-0.9-2.8-1.7-4.2-2.5c-4-2.5-8.4-4.7-13-7
			c-1.9-0.9-3.9-2-5.9-2.8c-1.3-0.6-2.7-1.2-4.1-1.9c-0.6-0.3-1.3-0.6-1.9-0.8c-0.3-0.2-0.5-0.2-0.8-0.4c-0.4-0.1-0.8-0.3-1.2-0.4
			l-0.1-0.1c-1-0.4-1.9-0.8-2.8-1.2c-0.5-0.2-1.1-0.5-1.7-0.7c-2.5-1.1-5-2.2-7.7-3.3c-3.1-1.3-6.3-2.6-9.5-3.9
			c-0.6-0.3-1.3-0.5-1.9-0.8c0,0-0.1,0-0.1,0c-1.2-0.4-2.3-0.9-3.5-1.5c-1.9-0.8-3.8-1.5-5.7-2.2c0,0,0,0-0.2-0.1
			c-10.7-4.3-22-8.6-33.8-13.2c-1.2-0.4-2.4-0.9-3.6-1.5l-0.2-0.1c-3.8-1.5-7.5-3-11.4-4.6c-4.5-1.8-9-3.7-13.6-5.5c0,0,0,0-0.1,0
			c-0.6-0.2-1.1-0.5-1.7-0.7c-1.4-0.7-2.8-1.2-4.3-1.8c-0.1-0.1-0.3-0.2-0.5-0.2c-1.1-0.5-2.2-0.8-3.2-1.3c-0.1,0-0.1-0.1-0.3-0.2
			c-0.1,0-0.2-0.1-0.2-0.1c-0.7-0.2-1.4-0.5-2-0.9c-0.1-0.1-0.3-0.2-0.5-0.2c-1.1-0.5-2.2-1-3.1-1.4c-0.2-0.1-0.3-0.1-0.3-0.2
			l-0.1-0.1c-0.5-0.2-1.2-0.5-1.8-0.8c-0.1-0.1-0.4-0.1-0.5-0.2c-1.1-0.5-2-0.9-3-1.4c-0.2-0.1-0.3-0.2-0.4-0.2l-0.2-0.1
			c-1.2-0.6-2.5-1.2-3.8-1.7c-0.5-0.2-1-0.5-1.6-0.8h0c-1.6-0.7-3.2-1.5-4.7-2.1c-0.3-0.2-0.5-0.2-0.8-0.4c-0.1-0.1-0.2-0.1-0.3-0.2
			c-2.8-1.4-5.6-2.6-8.4-4c0,0,0,0-0.1,0c-0.4-0.3-0.9-0.4-1.4-0.7c-0.2-0.1-0.4-0.2-0.6-0.3c-1.5-0.8-3.1-1.5-4.6-2.3
			c-0.2-0.1-0.3-0.2-0.5-0.3c-1.5-0.8-3-1.4-4.4-2.2c-1-0.5-1.8-1-2.8-1.5l-0.1-0.1c-0.7-0.3-1.3-0.7-2-1c-0.6-0.4-1.2-0.6-1.8-1
			c-1-0.5-1.9-1-2.9-1.5c-0.1-0.1-0.3-0.2-0.5-0.2c-0.2-0.1-0.3-0.2-0.4-0.3c-0.7-0.4-1.4-0.8-2.1-1.1c-0.5-0.3-1.1-0.6-1.7-0.9
			c-0.8-0.5-1.7-0.9-2.5-1.4c-0.6-0.3-1.2-0.6-1.8-1v0c-0.8-0.5-1.6-0.9-2.5-1.4c-2.4-1.3-4.7-2.7-7.1-4.1c-0.2-0.1-0.4-0.2-0.6-0.3
			c-1-0.6-1.9-1.2-2.9-1.7c-0.1-0.1-0.3-0.2-0.4-0.3c-0.6-0.4-1.3-0.7-1.9-1.1c-0.4-0.2-0.8-0.5-1.1-0.7c0,0-0.1,0-0.1-0.1
			c-1.9-1.1-3.7-2.2-5.6-3.4c-0.6-0.4-1.2-0.7-1.7-1.1c-1.8-1.1-3.5-2.3-5.2-3.4c0,0,0,0,0,0c-0.7-0.5-1.3-0.9-2-1.4
			c-2.8-1.8-5.5-3.7-8.1-5.6c-0.3-0.2-0.7-0.5-1-0.7c-0.3-0.2-0.6-0.4-0.9-0.7c-0.1,0-0.1-0.1-0.2-0.2c-0.6-0.4-1.2-0.9-1.8-1.3
			c-0.1-0.1-0.2-0.1-0.2-0.2c-0.1-0.1-0.2-0.1-0.3-0.2c-0.6-0.5-1.2-0.9-1.8-1.3c-0.1-0.1-0.2-0.1-0.2-0.2c-0.1-0.1-0.2-0.1-0.2-0.2
			c-0.6-0.4-1.2-0.9-1.8-1.3c-0.2-0.1-0.4-0.3-0.5-0.4c-0.5-0.4-1-0.8-1.5-1.2c-0.1-0.1-0.3-0.3-0.4-0.4c0,0,0,0,0,0c0,0,0,0-0.1,0
			c-0.3-0.3-0.6-0.5-1-0.8c-0.3-0.2-0.6-0.5-0.9-0.7c-0.1-0.1-0.2-0.1-0.2-0.2c-0.1,0-0.1-0.1-0.2-0.2c-0.6-0.5-1.2-0.9-1.7-1.4
			c-0.1-0.1-0.2-0.1-0.2-0.2c-0.1-0.1-0.2-0.1-0.2-0.2c-0.2-0.2-0.4-0.3-0.5-0.4c-0.1-0.1-0.3-0.2-0.3-0.3c-0.3-0.2-0.5-0.4-0.8-0.6
			c-0.1-0.1-0.2-0.1-0.2-0.2c-0.1-0.1-0.2-0.1-0.3-0.2c-0.6-0.5-1.1-1-1.7-1.4c-0.1-0.1-0.2-0.1-0.2-0.2c-0.1-0.1-0.1-0.1-0.2-0.2
			c-0.3-0.3-0.7-0.6-1-0.9c-0.2-0.2-0.3-0.3-0.5-0.4c-2.1-1.8-4.1-3.6-6.1-5.4c-0.1-0.1-0.2-0.2-0.3-0.3c0,0,0,0,0,0h0
			c-0.2-0.2-0.5-0.4-0.7-0.6c-0.4-0.4-0.9-0.8-1.3-1.2c-3.2-3-6.3-5.9-9.3-8.9c-0.9-1-1.9-1.9-2.8-2.9c-0.1-0.1-0.2-0.2-0.2-0.3
			c-1.9-1.9-3.7-3.9-5.5-5.8c-0.5-0.5-1-1.1-1.5-1.6c-0.2-0.2-0.4-0.5-0.6-0.7c-0.3-0.4-0.6-0.7-1-1.1c-0.3-0.4-0.6-0.7-1-1.1
			c-1.2-1.3-2.3-2.6-3.4-3.9c0,0,0,0,0,0c-0.3-0.4-0.6-0.8-0.9-1.1c-0.3-0.3-0.5-0.6-0.8-0.9c-0.2-0.2-0.3-0.4-0.4-0.5
			c-0.4-0.5-0.8-1-1.2-1.4c-0.4-0.5-0.8-1-1.2-1.5c-0.9-1.1-1.8-2.2-2.7-3.4c0,0,0,0,0,0c-18.2-23-30.7-46.3-39.2-67.8H538.2z"/>
	</g>
</g>
<g id="XMLID_878_">
	<g id="XMLID_1594_">
		<g id="XMLID_1599_">
			<g id="XMLID_1602_">
				<path id="XMLID_1625_" class="st2" d="M223.8,128.4c0,0,7.6,8.8,9.5,9.3c2,0.6,0.2,2.7-1.4,2.9c-1.6,0.2-6.5-0.1-7.9-1.5
					c-1.5-1.4-5.5-3-5.5-3c0-4.5,1.1-7.5,1.1-7.5L223.8,128.4z"/>
				<path id="XMLID_1624_" class="st2" d="M226.4,66.2c0,0,1,19.5,0.6,25.9c-0.4,6.4-1.9,38.1-1.9,38.1c-4.1,0.9-6.8,0-6.8,0
					c-1.4-24.3-1.3-31.3-1.7-34.9c-0.4-3.6-0.9-14.1-0.9-14.1c-3-6,0.1-13.9,1.6-15.7C218.7,63.5,226.4,66.2,226.4,66.2z"/>
				<path id="XMLID_1623_" class="st2" d="M211.5,136.7c0.3,3.5,1.6,7.8,1.9,9.8c0.3,2.2-0.4,3.3-0.9,4c-0.5,0.7-6.5-1.3-7.4-3.6
					c-0.8-2.4,0.9-4.3,1-8.7C207.9,134.8,211.5,136.7,211.5,136.7z"/>
				<path id="XMLID_1622_" class="st3" d="M220.1,67.7c0,0-1.1,17.7-2.7,23.6c-1.7,5.9-3.1,23.2-3.8,26.3s-1.6,21.6-1.6,21.6
					c-3.7,1-6.7,0-6.7,0c0.1-17.5-0.3-31.7,0-36.5c0.3-4.8-0.1-19-0.1-19c-1.6-6.6-1.7-7.5,0-11.8C206.9,67.6,214,64.1,220.1,67.7z"
					/>
				<path id="XMLID_1621_" class="st4" d="M223.6,25.7c6.1,1.7,9.4,17.1,11.1,20.6s16,4.3,16,4.3c0.9,3-1.6,6.1-1.6,6.1
					c-13.8-0.6-18.6-1.7-21.2-7.2C225.3,44.1,216.4,27.5,223.6,25.7z"/>
				<path id="XMLID_1620_" class="st5" d="M223.6,25.7c-5.4-0.2-18,2.6-22.1,7.9c-4.1,5.3,1.9,14.7,3.3,20.3s-0.7,19.8-0.7,21.2
					c6.4,4.2,21.9,4.8,23.7-1.6c0.7-6.9-0.9-15.2-1-19.2C226.9,45.5,230.8,28.3,223.6,25.7z"/>
				<path id="XMLID_1619_" class="st6" d="M218.8,27c3.5,12.3,4.3,26.1,3.9,31.3c-0.3,5.2-0.5,22-0.5,22c4-2.2,5.9-6.1,5.9-7.9
					c0-1.8-1.6-17-1.5-18.3c0.1-1.2,2.1-15.3,1.5-21.6c-0.6-6.3-4.7-7-4.7-7h-5.2L218.8,27z"/>
				<path id="XMLID_1618_" class="st7" d="M222.3,12.1c2.4,0.8,0,6.2,0,6.2V12.1z"/>
				<path id="XMLID_1617_" class="st8" d="M222.4,12.8c0,0,0.9,3.1,0.6,5.7c-0.3,2.5-0.6,7.4-2.8,9s-5.3-0.3-7.4-2.1
					c-2.1-1.8-4.3-5-4.3-9c-0.1-3.9,1.5-8.8,7.2-8.6C221.3,8.2,222.4,12.8,222.4,12.8z"/>
				<path id="XMLID_1616_" class="st8" d="M211.4,22c0,0,0.5,5.1-0.9,7c-0.1,1.3,3.4,6.6,7.1,5.6c2.1-0.5,1.9-3,1.9-3
					c-0.2-1.9,0-6.3,0-6.3L211.4,22z"/>
				<path id="XMLID_1615_" class="st2" d="M223.8,8.6c0.8,3-0.1,3.9-2.6,4.8s-9.1-1.1-9.1-1.1c0.5,3.1-0.6,4.7-0.6,4.7
					c-1.1-3.1-2.1-1.5-2.2,1c-0.1,2.5,1.3,2.4,1.3,2.4c-0.1,2.1-0.8,2.8-0.8,2.8c-2.7-1.9-6.2-14-1.5-14.3
					C208.5,4.6,222,2.3,223.8,8.6z"/>
				<path id="XMLID_1613_" class="st6" d="M210.2,28.1c4.2,9,6.4,17,6.3,24.4c-0.1,7.4-1.7,28.8-1.7,28.8
					c-7.4-1.8-12.3-3.8-13.8-6.4c3.1-8.3,4.3-13.9,3.6-16.2c-0.7-2.4-6.2-20.4-3.3-25.7C204.2,30.1,210.2,28.1,210.2,28.1z"/>
				<path id="XMLID_1605_" class="st9" d="M203.8,32.9c5.1,2.6,9.1,16.5,13,20.3c2.2,2.2,13,4.9,15.9,4.9c1.2,2.7-0.9,5.6-0.9,5.6
					c-18.4-1.8-19.3-2.8-24.9-9.9C199.9,44.7,197,31.2,203.8,32.9z"/>
				<path id="XMLID_34_" class="st10" d="M219.2,28c-1.6,0.6-3.7-0.3-6.7-2.7c0,0,0.9,3.4,6.7,4.7V28z"/>
			</g>
			<path id="XMLID_1601_" class="st5" d="M211.2,26.9c0,0.2-1,1.2-1,1.2s1.9,4,2.5,5.8c0.7,1.8,2.4,3.2,2.4,3.2l2.4-2.6
				C214.2,32.8,211.2,26.9,211.2,26.9z"/>
		</g>
		<path id="XMLID_1598_" class="st5" d="M219,28.2c-0.2-0.3-0.8,5-1.6,6.3c1.5,1.5,2.5,1.8,2.5,1.8S220.8,30.4,219,28.2z"/>
	</g>
	<g id="XMLID_1614_">
		<g id="XMLID_1592_">
			<g id="XMLID_1588_">
				<g id="XMLID_1603_">
					<path id="XMLID_1612_" class="st2" d="M380.7,83c-0.2,2.7-0.4,5.3-0.4,5.3h-0.6c0,0,0-4-0.6-3.1C379.2,82.9,380.7,83,380.7,83z
						"/>
					<path id="XMLID_1611_" class="st8" d="M372.7,87.4c-0.3,0-0.7-0.3-1-0.8c0.6-0.7,1.2-1.4,1.6-2c1.3-1.8,3.3-5.7,3.4-7.4
						c0.1-1.8-1-20.1-1.3-22.3c-0.3-2.3-1.2-10.7-1.1-11.2c0.1-0.5,7.9,3.1,7.9,3.1c-0.1,0.7-1.2,5.1-0.7,7.9
						c0.4,2.9,1.1,4.7,0.7,9.3c-0.4,4.6-2.7,12-1.9,15.5c0,0.1,0,0.1,0,0.2C378.1,82.9,377.3,89,372.7,87.4z"/>
					<path id="XMLID_1607_" class="st2" d="M371.7,86.6c0.3,0.5,0.7,0.8,1,0.8c4.6,1.6,5.4-4.6,7.8-7.8c0.7,3.3,0.4,3.7-0.2,4.2
						c-0.6,0.5-2.8,3.1-3.1,5c-0.4,1.9-6.2,1.7-7.3,1.3C368.9,89.9,370.3,88.3,371.7,86.6z"/>
					<path id="XMLID_1606_" class="st8" d="M388.8,62.5c0.2,2.1,1.5,17.9,1.3,20.5c-0.1,1.6-0.9,4.1-1.4,6.2c-0.3,1.3-0.5,2.4-0.3,3
						c0.5,1.4,0.5,5.4,2.7,4.4c2.2-0.9,3.6-3.7,3.1-6.8c-0.4-3.1,0.1-4.6,0-6.4c-0.1-1.9,1.1-13.4,1.3-17.4c0.2-4.1-1.2-6.1-1.3-8.8
						c-0.1-2.8,0.7-8.5,0.7-8.5s-9.4-4.9-8.7,1C387,55.6,388.5,60.5,388.8,62.5z"/>
					<path id="XMLID_1604_" class="st2" d="M387.9,92.2c0.1,2.8,0.9,5.2,3.1,4.3c2.2-0.9,3.6-3.7,3.1-6.8c-1.2,3.4-5.6,3.2-5.5-0.6
						C388.3,90.5,387.9,91.7,387.9,92.2z"/>
				</g>
			</g>
			<path id="XMLID_1590_" class="st11" d="M373.6,24.1c0,0,0,19.1,0,25.3c0,6.3,1.6,27.4,1.6,27.4c3.1,1.2,6.3-0.3,6.3-0.3
				c0.5-5.4,2.1-14.4,2.4-19.1s-1.9-5.5-1-9s3.3-21.8,3.3-21.8L373.6,24.1z"/>
			<path id="XMLID_1589_" class="st11" d="M383.9,28.1c0,0,1.7,20.5,2.4,23c0.7,2.6,1.2,12.6,1.7,16c0.5,3.4,0.6,13.4,0.6,13.4
				c1.3,4,6.4,0.6,6.4,0.6c2.2-12.7,0.7-19,0.6-22.7c-0.1-3.7,1.8-13.5,1.4-17.5c-0.4-4-0.8-12.4,0-14c0.8-1.6,1.7-4.1,2-8.9
				c-6.1-2.3-15.5,0.3-15.5,0.3L383.9,28.1z"/>
		</g>
		<path id="XMLID_1610_" class="st5" d="M374.6-16.4c5.3-0.3,14.5,6.1,18.6,11.3c4.1,5.2,1.6,10.8,0.2,16.4
			c-1.4,5.6,0.8,19.5,0.8,20.9c-6.3,4.2-18.2,4.8-19.9-1.5c-0.8-6.8,0.8-14,0.9-18C374.8,4.1,367.5-13.9,374.6-16.4z"/>
		<path id="XMLID_1609_" class="st12" d="M379.2-15.2c-2.8,12.1-1.9,25.2-1.3,30.4c0.6,5.1,0.7,22.2,0.7,22.2
			c-4.1-2.1-6.1-5.9-6.2-7.7c-0.1-1.8,1.5-16.6,1.4-17.8c-0.1-1.2-2.3-12.7-2-18.9c0.2-6.2,2.6-7.2,2.6-7.2l5.3-2.4L379.2-15.2z"/>
		<path id="XMLID_1608_" class="st12" d="M387-14c-4.1,8.9-2.2,16.9-2,24.2c0.2,7.3,3.9,27.7,3.9,27.7c7.2-1.8,8.1-6.7,9.4-9.2
			c3.3-17-0.9-30.8-4-35.8C392-11.1,387-14,387-14z"/>
		<g id="XMLID_1570_">
			<g id="XMLID_1593_">
				<path id="XMLID_1596_" class="st13" d="M358,13.5c1,0.6,2.7,0.6,3.6,0c1-0.6,1-1.5,0-2.1s-2.7-0.6-3.6,0
					C356.9,12,356.9,12.9,358,13.5z"/>
			</g>
		</g>
		<g id="XMLID_1476_">
			<path id="XMLID_1477_" class="st12" d="M391.6-7c-5,2.5-5.5,17.2-9.3,20.9c-2.2,2.1-10.8,0.4-13.8,0.5c-1.2,2.6,0.4,5.8,0.4,5.8
				c16.5,0.8,18.5,1.3,22.7-6.7C394.9,7.1,398.3-8.6,391.6-7z"/>
		</g>
		<g id="XMLID_1471_">
			<path id="XMLID_1475_" class="st12" d="M374.4-14.2c-3.2,1.7-4.7,15.1-8.6,18.4c-2.2,1.9-3.1,3.6-7.6,5.8c-1.2,2.4,2,3.8,2,3.8
				c8.9-3.3,10.8-6.2,13.8-10.6C377.8-2.1,381.1-15.6,374.4-14.2z"/>
			<path id="XMLID_1474_" class="st8" d="M360.2,13.6c-0.1,0.3-1,1.3-1.8,2.1c-0.8,0.9-2,2.4-2.4,2c-0.4-0.4,0.4-1.9,0.4-1.9
				s-2.3,2.2-2.7,2.9c-0.4,0.7-0.2-1.4,0.4-2.4c-1.5,2.2-1.8,2.7-1.9,2.2c-0.1-0.6,1.1-3.5,0.9-3.2c-1.7,2.6-2.3,2.9-2.2,1.7
				c0.2-1.2,1.8-3.1,2.8-3.6c-2.9,1.9-3.1,1.7-2.4,0.9c0.7-0.9,3.4-2.9,7-3.3C360.7,12.9,360.2,13.6,360.2,13.6z"/>
		</g>
		<path id="XMLID_1439_" class="st8" d="M358.3,18.2c1-1.5,2.3-3.1,4-3.6c1.2-0.3,2.5-0.1,3.7,0.3c1,0.3,2.4,0.4,3.2,0.9
			c0.4,1.1,0.7,2.1,0.7,3.1c-0.2,0.1-0.4,0.1-0.6,0.1c-1,0.1-2.1,0.5-3.1,0.5c-0.7,0-1.8,0.2-2.4,0c0.3,0.1,0.6,0.2,0.6,0.5
			c0,0.2-0.2,0.4-0.4,0.5c-1.5,0.4-2.8-1.4-3.6-2.3C360.5,18.2,357,20.1,358.3,18.2z"/>
		<path id="XMLID_902_" class="st14" d="M373.7-28.8c-0.1,0.1-0.1,0.3-0.2,0.5c-0.3,0.8-0.1,1.8-0.3,2.6c-0.3,1.3-1.3,2.4-1.7,3.6
			c-1.6,4.7,3.1,7.3,7.1,7c0.7-0.1,1.5-0.2,2.1-0.7c2-1.5-0.3-3.9-1.2-5.3c-0.7-1-1.6-2.3-1.7-3.4c-0.1-1.1,0.5-2.1,0.3-3.3
			C377.8-30.2,374.8-30.8,373.7-28.8z"/>
		<path id="XMLID_899_" class="st8" d="M385.8-19.4c0,0-1.3,4.6,1.7,6.5c0.1,1.1-3.1,5.9-6.3,5.1c-1.9-0.5-2.9-3.1-2.9-3.1
			c0.2-1.7,1.2-5.2,1.2-5.2L385.8-19.4z"/>
		<g id="XMLID_897_">
			<path id="XMLID_898_" class="st8" d="M375-28.7c0,0-0.8,3-0.5,5.2s0.5,6.8,2.6,8.3c2,1.5,4.9-0.2,6.8-1.9
				c1.9-1.6,3.9-4.6,3.9-8.3c0-3.6-1.4-8.1-6.6-7.8C376-32.9,375-28.7,375-28.7z"/>
		</g>
		<path id="XMLID_896_" class="st14" d="M378.7-30.9c-1.4,1.7-0.7,3.6,1,4.9c1.2,0.9,2.2,1.4,3,2.7c0.7,1.2,1.1,2.6,1.2,3.9
			c0.1,1.2,0.1,2.3,0.1,3.4c0,0.5,0.1,1.3,0.6,1.4c0.7,0.2,2-0.3,2.6-0.7c1-0.6,1.8-1.3,2.5-2.2c1.4-1.7,2.3-3.7,2.4-5.9
			c0.1-4-2.2-6.7-5.1-9C383.9-34.6,381.1-33.8,378.7-30.9z"/>
		<path id="XMLID_895_" class="st14" d="M376.9-32.9L376.9-32.9c1.1-0.7,5.2-2,5.2,0.1c0,2.1-3.1,4.2-4.7,5.1
			c-0.7,0.4-1.5,0.8-2.2,1.3c-0.9,0.7-0.9,2-1.7,2.5c-1.2-1.1-0.9-3.8-0.4-5.2C373.8-30.9,375.4-31.9,376.9-32.9z"/>
		<path id="XMLID_32_" class="st10" d="M379.2-14.7c2.2-0.2,4.4-2.3,4.4-2.3s-0.5,2.5-4.7,3.3L379.2-14.7z"/>
	</g>
	<path id="XMLID_900_" class="st14" d="M439.9,109.7c-2.1,3.2-1.6,5.5-1,5.7c12.2,5.4,19.8,3.7,21.6,3.1c-2.1-2.9-3.9-5.5-6.2-8.6
		C448.3,111.1,439.9,109.7,439.9,109.7z"/>
	<g id="XMLID_662_">
		<g id="XMLID_1998_" class="st15">
			<g id="XMLID_664_">
				<polygon id="XMLID_665_" class="st16" points="404.4,22.8 404.4,36.2 379.9,50.5 379.9,37 				"/>
			</g>
			<g id="XMLID_666_">
				<polygon id="XMLID_667_" class="st17" points="294.4,37 294.4,50.5 269.8,36.2 269.8,22.8 				"/>
			</g>
			<g id="XMLID_668_">
				<path id="XMLID_669_" class="st18" d="M358,55.7V42.2c0-1.9,1.3-3.8,3.7-5.2c5-3,13.2-3,18.2,0v13.5c-5-3-13.2-3-18.2,0
					C359.2,51.9,358,53.8,358,55.7z"/>
			</g>
			<g id="XMLID_670_">
				<path id="XMLID_671_" class="st16" d="M316.5,42.3v13.5c0-2-1.3-3.8-3.8-5.3c-5-3-13.2-3-18.2,0V37c5-3,13.2-3,18.2,0
					C315.2,38.5,316.5,40.4,316.5,42.3z"/>
			</g>
			<g id="XMLID_672_">
				<polygon id="XMLID_673_" class="st17" points="337.3,61.8 337.3,75.3 312.7,61 312.7,47.5 				"/>
			</g>
			<g id="XMLID_674_">
				<polygon id="XMLID_675_" class="st16" points="361.8,47.5 361.7,61 337.3,75.3 337.3,61.8 				"/>
			</g>
			<g id="XMLID_676_">
				<path id="XMLID_677_" class="st19" d="M404.4,22.8L380,36.9c-5-3-13.2-3-18.2,0s-5,7.7,0.1,10.5l-24.4,14.2l-24.6-14.2
					c5-3,5-7.7-0.1-10.5c-5-3-13.2-3-18.2,0L270,22.8l67.1-39L404.4,22.8z"/>
			</g>
		</g>
		<g id="XMLID_1985_" class="st15">
			<g id="XMLID_678_">
				<path id="XMLID_679_" class="st20" d="M296.1,54.1v13.5c0,1.9-1.3,3.8-3.7,5.2V59.4C294.9,58,296.1,56,296.1,54.1z"/>
			</g>
			<g id="XMLID_680_">
				<polygon id="XMLID_681_" class="st20" points="317,73.6 317,87.1 292.6,101.3 292.6,87.8 				"/>
			</g>
			<g id="XMLID_682_">
				<path id="XMLID_683_" class="st21" d="M270.5,106.5V93c0-1.9,1.3-3.8,3.7-5.2c5-3,13.2-3,18.2,0v13.5c-5-3-13.2-3-18.2,0
					C271.8,102.8,270.5,104.6,270.5,106.5z"/>
			</g>
			<g id="XMLID_684_">
				<polygon id="XMLID_685_" class="st20" points="274.3,98.4 274.3,111.8 249.8,126.1 249.9,112.6 				"/>
			</g>
			<g id="XMLID_686_">
				<polygon id="XMLID_687_" class="st22" points="249.9,112.6 249.8,126.1 182.3,87.1 182.3,73.6 				"/>
			</g>
			<g id="XMLID_688_">
				<path id="XMLID_689_" class="st11" d="M292.4,48.8c5,3,5.1,7.7,0.1,10.5l24.6,14.2l-24.5,14.3c-5-3-13.2-3-18.2,0
					s-5,7.7,0.1,10.5L250,112.5l-67.7-38.9l67.1-39l24.6,14.2C279.1,45.9,287.2,45.9,292.4,48.8z"/>
			</g>
		</g>
		<g id="XMLID_1972_" class="st15">
			<g id="XMLID_690_">
				<path id="XMLID_691_" class="st9" d="M378.5,67.5V54c0,2,1.3,3.8,3.8,5.3v13.5C379.7,71.4,378.5,69.5,378.5,67.5z"/>
			</g>
			<g id="XMLID_692_">
				<polygon id="XMLID_693_" class="st9" points="382.4,87.8 382.4,101.3 357.8,87.1 357.8,73.6 				"/>
			</g>
			<g id="XMLID_694_">
				<path id="XMLID_695_" class="st4" d="M404.5,93.1v13.5c0-2-1.3-3.8-3.8-5.3c-5-3-13.2-3-18.3,0V87.8c5-3,13.2-3,18.3,0
					C403.3,89.3,404.5,91.2,404.5,93.1z"/>
			</g>
			<g id="XMLID_696_">
				<polygon id="XMLID_697_" class="st9" points="425.4,112.6 425.3,126.1 400.7,111.9 400.7,98.4 				"/>
			</g>
			<g id="XMLID_698_">
				<polygon id="XMLID_699_" class="st4" points="492.4,73.6 492.4,87.1 425.3,126.1 425.4,112.6 				"/>
			</g>
			<g id="XMLID_700_">
				<path id="XMLID_701_" class="st6" d="M492.4,73.6l-67,39l-24.6-14.2c5-3,5-7.7-0.1-10.5c-5-3-13.2-3-18.3,0l-24.6-14.2
					l24.4-14.2c-5-3-5.1-7.7-0.1-10.5c5-3,13.2-3,18.2,0l24.4-14.2L492.4,73.6z"/>
			</g>
		</g>
		<g id="XMLID_1960_" class="st15">
			<g id="XMLID_702_">
				<path id="XMLID_703_" class="st23" d="M384.2,104.9v13.5c0,1.9-1.3,3.8-3.7,5.2v-13.5C382.9,108.8,384.2,106.9,384.2,104.9z"/>
			</g>
			<g id="XMLID_704_">
				<path id="XMLID_705_" class="st24" d="M291,118.4v-13.5c0,2,1.3,3.8,3.8,5.3v13.5C292.3,122.2,291,120.3,291,118.4z"/>
			</g>
			<g id="XMLID_706_">
				<path id="XMLID_1553_" class="st25" d="M313.8,168.1c0,0,0.7,0.2,2.2,0.9c1.6,0.7,4.9,0.9,7,0.5c2.1-0.3,4.9-0.8,4.4-1.6
					c-0.6-0.8-11-3.3-11.5-3.1C315.5,165,313.8,168.1,313.8,168.1z"/>
				<polygon id="XMLID_707_" class="st24" points="337.9,163.4 337.9,176.9 270.3,137.9 270.4,124.4 				"/>
			</g>
			<g id="XMLID_708_">
				<polygon id="XMLID_709_" class="st23" points="405,124.4 404.9,137.9 337.9,176.9 337.9,163.4 				"/>
			</g>
			<g id="XMLID_710_">
				<path id="XMLID_711_" class="st12" d="M380.3,99.6c5,3,5.1,7.7,0.1,10.5l24.6,14.2l-67.1,39.1l-67.5-39l24.4-14.2
					c-5-3-5.1-7.7-0.1-10.5c5-3,13.2-3,18.2,0l24.4-14.2l24.6,14.2C367.1,96.8,375.3,96.8,380.3,99.6z"/>
			</g>
		</g>
	</g>
	<g id="XMLID_587_">
		<g id="XMLID_625_">
			<g id="XMLID_713_">
				<g id="XMLID_1954_" class="st15">
					<g id="XMLID_715_">
						<path id="XMLID_716_" class="st26" d="M338.1,121.6v1.4c0,1.1-0.7,2.2-2.2,3.1c-3,1.7-7.7,1.7-10.6,0c-1.5-0.9-2.3-2-2.3-3.1
							v-1.4c0,1.1,0.7,2.3,2.3,3.1c3,1.7,7.7,1.7,10.6,0C337.3,123.8,338,122.6,338.1,121.6z"/>
					</g>
					<g id="XMLID_717_">
						<path id="XMLID_718_" class="st27" d="M335.9,118.5c3,1.7,3,4.4,0,6.2c-3,1.7-7.7,1.7-10.6,0c-3-1.7-3-4.4,0-6.2
							C328.2,116.7,332.9,116.7,335.9,118.5z"/>
					</g>
				</g>
			</g>
			<path id="XMLID_1856_" class="st27" d="M348.2,76c-0.5-0.3-1.1-0.2-1.8,0.2L309,97.8c-1.4,0.8-2.5,2.7-2.5,4.2l0.1,28
				c0,0.8,0.3,1.3,0.7,1.6l2.5,1.4c-0.4-0.3-0.7-0.8-0.7-1.6l-0.1-28c0-1.6,1.1-3.4,2.5-4.2l37.5-21.6c0.7-0.4,1.3-0.4,1.8-0.2
				L348.2,76z"/>
			<path id="XMLID_714_" class="st26" d="M348.9,77.6c1.4-0.8,2.5-0.2,2.5,1.4l0.1,28c0,1.6-1.1,3.4-2.5,4.2l-37.5,21.6
				c-1.4,0.8-2.5,0.2-2.5-1.4l-0.1-28c0-1.6,1.1-3.4,2.5-4.2L348.9,77.6z"/>
			<line id="XMLID_719_" class="st0" x1="310.8" y1="103.4" x2="310.8" y2="103.4"/>
			<polygon id="XMLID_720_" class="st28" points="349.7,84.6 349.7,79.1 348.6,79.7 346.4,81 316.2,98.4 310.8,101.6 310.8,103.4 
				310.8,103.4 310.8,116.7 310.9,127.8 334.7,114.1 338.4,111.9 349.7,105.3 			"/>
			<polygon id="XMLID_721_" class="st6" points="316.2,98.4 310.9,101.6 310.9,103.2 349.7,80.8 349.7,79.1 			"/>
			<path id="XMLID_1855_" class="st6" d="M315.4,105.4c0,0.8-0.6,1.8-1.2,2.2c-0.7,0.4-1.2,0.1-1.2-0.7c0-0.8,0.6-1.8,1.2-2.2
				C314.8,104.3,315.4,104.6,315.4,105.4z"/>
			<path id="XMLID_1854_" class="st11" d="M315.4,109.7c0,0.8-0.6,1.8-1.2,2.2c-0.7,0.4-1.2,0.1-1.2-0.7c0-0.8,0.6-1.8,1.2-2.2
				S315.4,109,315.4,109.7z"/>
			<path id="XMLID_1853_" class="st12" d="M315.4,114c0,0.8-0.6,1.8-1.2,2.2c-0.7,0.4-1.2,0.1-1.2-0.7s0.6-1.8,1.2-2.2
				C314.8,112.9,315.4,113.3,315.4,114z"/>
			<path id="XMLID_1852_" class="st11" d="M315.2,128.2c0,0.6-0.4,1.3-0.9,1.6c-0.5,0.3-0.9,0.1-0.9-0.5c0-0.6,0.4-1.3,0.9-1.6
				C314.8,127.5,315.2,127.7,315.2,128.2z"/>
		</g>
		<g id="XMLID_722_">
			<g id="XMLID_727_">
				<polygon id="XMLID_1851_" class="st14" points="365,129.3 353,122.4 369,113.2 381,120.1 				"/>
			</g>
			<polygon id="XMLID_1850_" class="st2" points="365,129.9 365,129.3 381,120.1 381,120.7 			"/>
			<polygon id="XMLID_1849_" class="st2" points="365,129.3 365,129.9 353,122.9 353,122.4 			"/>
		</g>
		<g id="XMLID_728_">
			<polygon id="XMLID_1848_" class="st29" points="322.2,137.8 322.2,138.8 333.9,145.6 333.9,144.6 			"/>
			<polygon id="XMLID_1847_" class="st26" points="333.9,144.6 333.9,145.6 359.9,130.6 359.9,129.6 			"/>
			<polygon id="XMLID_1846_" class="st27" points="322.2,137.8 333.9,144.6 359.9,129.6 348.2,122.7 			"/>
			<g id="XMLID_729_">
				<g id="XMLID_1928_" class="st15">
					<g id="XMLID_731_">
						<polygon id="XMLID_1845_" class="st29" points="346.6,124.5 346.6,125 348.2,126 348.2,125.4 						"/>
					</g>
					<g id="XMLID_732_">
						<polygon id="XMLID_1844_" class="st26" points="348.2,125.4 348.2,126 349.8,125 349.7,124.5 						"/>
					</g>
					<g id="XMLID_733_">
						<polygon id="XMLID_1843_" class="st27" points="346.6,124.5 348.2,125.4 349.7,124.5 348.2,123.5 						"/>
					</g>
				</g>
				<g id="XMLID_1921_" class="st15">
					<g id="XMLID_734_">
						<polygon id="XMLID_1842_" class="st29" points="344.5,125.7 344.5,126.2 346.1,127.2 346.1,126.6 						"/>
					</g>
					<g id="XMLID_735_">
						<polygon id="XMLID_1841_" class="st26" points="346.1,126.6 346.1,127.2 347.8,126.2 347.8,125.7 						"/>
					</g>
					<g id="XMLID_736_">
						<polygon id="XMLID_1726_" class="st27" points="344.5,125.7 346.1,126.6 347.8,125.7 346.1,124.8 						"/>
					</g>
				</g>
				<g id="XMLID_1914_" class="st15">
					<g id="XMLID_737_">
						<polygon id="XMLID_1840_" class="st29" points="342.4,126.9 342.4,127.4 344.1,128.3 344.1,127.8 						"/>
					</g>
					<g id="XMLID_738_">
						<polygon id="XMLID_1839_" class="st26" points="344.1,127.8 344.1,128.3 345.7,127.4 345.7,126.9 						"/>
					</g>
					<g id="XMLID_739_">
						<polygon id="XMLID_1727_" class="st27" points="342.4,126.9 344.1,127.8 345.7,126.9 344,126 						"/>
					</g>
				</g>
				<g id="XMLID_1907_" class="st15">
					<g id="XMLID_740_">
						<polygon id="XMLID_1838_" class="st29" points="340.4,128 340.4,128.5 342,129.5 342,128.9 						"/>
					</g>
					<g id="XMLID_741_">
						<polygon id="XMLID_1837_" class="st26" points="342,128.9 342,129.5 343.6,128.5 343.6,128 						"/>
					</g>
					<g id="XMLID_742_">
						<polygon id="XMLID_1729_" class="st27" points="340.4,128 342,128.9 343.6,128 342,127.2 						"/>
					</g>
				</g>
				<g id="XMLID_1900_" class="st15">
					<g id="XMLID_743_">
						<polygon id="XMLID_1836_" class="st29" points="338.3,129.2 338.3,129.7 340,130.7 340,130.2 						"/>
					</g>
					<g id="XMLID_744_">
						<polygon id="XMLID_1835_" class="st26" points="340,130.2 340,130.7 341.6,129.7 341.6,129.2 						"/>
					</g>
					<g id="XMLID_745_">
						<polygon id="XMLID_1728_" class="st27" points="338.3,129.2 340,130.2 341.6,129.2 340,128.3 						"/>
					</g>
				</g>
				<g id="XMLID_1893_" class="st15">
					<g id="XMLID_746_">
						<polygon id="XMLID_1834_" class="st29" points="336.3,130.4 336.3,130.9 337.9,131.9 337.9,131.4 						"/>
					</g>
					<g id="XMLID_747_">
						<polygon id="XMLID_1833_" class="st26" points="337.9,131.4 337.9,131.9 339.5,130.9 339.5,130.4 						"/>
					</g>
					<g id="XMLID_748_">
						<polygon id="XMLID_1730_" class="st27" points="336.3,130.4 337.9,131.4 339.5,130.4 337.9,129.5 						"/>
					</g>
				</g>
				<g id="XMLID_1886_" class="st15">
					<g id="XMLID_749_">
						<polygon id="XMLID_1832_" class="st29" points="334.3,131.6 334.3,132.1 335.9,133.1 335.9,132.6 						"/>
					</g>
					<g id="XMLID_750_">
						<polygon id="XMLID_1831_" class="st26" points="335.9,132.6 335.9,133.1 337.5,132.1 337.5,131.6 						"/>
					</g>
					<g id="XMLID_751_">
						<polygon id="XMLID_1733_" class="st27" points="334.3,131.6 335.9,132.6 337.5,131.6 335.9,130.7 						"/>
					</g>
				</g>
				<g id="XMLID_1879_" class="st15">
					<g id="XMLID_752_">
						<polygon id="XMLID_1830_" class="st29" points="332.2,132.8 332.2,133.3 333.8,134.2 333.8,133.8 						"/>
					</g>
					<g id="XMLID_753_">
						<polygon id="XMLID_1829_" class="st26" points="333.8,133.8 333.8,134.2 335.5,133.3 335.5,132.8 						"/>
					</g>
					<g id="XMLID_754_">
						<polygon id="XMLID_1731_" class="st27" points="332.2,132.8 333.8,133.8 335.5,132.8 333.8,131.9 						"/>
					</g>
				</g>
				<g id="XMLID_1872_" class="st15">
					<g id="XMLID_755_">
						<polygon id="XMLID_1828_" class="st29" points="330.1,134 330.1,134.4 331.8,135.4 331.8,134.9 						"/>
					</g>
					<g id="XMLID_756_">
						<polygon id="XMLID_1827_" class="st26" points="331.8,134.9 331.8,135.4 333.4,134.4 333.4,134 						"/>
					</g>
					<g id="XMLID_757_">
						<polygon id="XMLID_1732_" class="st27" points="330.1,134 331.8,134.9 333.4,134 331.7,133.1 						"/>
					</g>
				</g>
				<g id="XMLID_1865_" class="st15">
					<g id="XMLID_758_">
						<polygon id="XMLID_1826_" class="st29" points="328.1,135.1 328.1,135.6 329.7,136.6 329.7,136.1 						"/>
					</g>
					<g id="XMLID_759_">
						<polygon id="XMLID_1825_" class="st26" points="329.7,136.1 329.7,136.6 331.3,135.6 331.3,135.1 						"/>
					</g>
					<g id="XMLID_760_">
						<polygon id="XMLID_1716_" class="st27" points="328.1,135.1 329.7,136.1 331.3,135.1 329.7,134.2 						"/>
					</g>
				</g>
				<g id="XMLID_1858_" class="st15">
					<g id="XMLID_761_">
						<polygon id="XMLID_1824_" class="st29" points="324,137.5 324,138 325.6,139 325.6,138.5 						"/>
					</g>
					<g id="XMLID_762_">
						<polygon id="XMLID_1823_" class="st26" points="325.6,138.5 325.6,139 329.3,136.8 329.3,136.3 						"/>
					</g>
					<g id="XMLID_763_">
						<polygon id="XMLID_1715_" class="st27" points="324,137.5 325.6,138.5 329.3,136.3 327.7,135.4 						"/>
					</g>
				</g>
				<g id="XMLID_1638_" class="st15">
					<g id="XMLID_764_">
						<polygon id="XMLID_1822_" class="st29" points="346.6,126.9 346.6,127.4 348.2,128.3 348.2,127.8 						"/>
					</g>
					<g id="XMLID_765_">
						<polygon id="XMLID_1821_" class="st26" points="348.2,127.8 348.2,128.3 351.8,126.2 351.8,125.7 						"/>
					</g>
					<g id="XMLID_766_">
						<polygon id="XMLID_1267_" class="st27" points="346.6,126.9 348.2,127.8 351.8,125.7 350.2,124.8 						"/>
					</g>
				</g>
				<g id="XMLID_1630_" class="st15">
					<g id="XMLID_767_">
						<polygon id="XMLID_1820_" class="st29" points="344.5,128 344.5,128.5 346.2,129.5 346.2,129 						"/>
					</g>
					<g id="XMLID_768_">
						<polygon id="XMLID_1819_" class="st26" points="346.2,129 346.2,129.5 347.8,128.6 347.8,128 						"/>
					</g>
					<g id="XMLID_769_">
						<polygon id="XMLID_1725_" class="st27" points="344.5,128 346.2,129 347.8,128 346.1,127.2 						"/>
					</g>
				</g>
				<g id="XMLID_1585_" class="st15">
					<g id="XMLID_770_">
						<polygon id="XMLID_1818_" class="st29" points="342.4,129.2 342.4,129.7 344.1,130.7 344.1,130.2 						"/>
					</g>
					<g id="XMLID_771_">
						<polygon id="XMLID_1817_" class="st26" points="344.1,130.2 344.1,130.7 345.7,129.8 345.7,129.2 						"/>
					</g>
					<g id="XMLID_772_">
						<polygon id="XMLID_1724_" class="st27" points="342.4,129.2 344.1,130.2 345.7,129.2 344.1,128.3 						"/>
					</g>
				</g>
				<g id="XMLID_1578_" class="st15">
					<g id="XMLID_773_">
						<polygon id="XMLID_1816_" class="st29" points="340.4,130.4 340.4,130.9 342,131.9 342,131.4 						"/>
					</g>
					<g id="XMLID_774_">
						<polygon id="XMLID_1815_" class="st26" points="342,131.4 342,131.9 343.6,131 343.6,130.4 						"/>
					</g>
					<g id="XMLID_775_">
						<polygon id="XMLID_1723_" class="st27" points="340.4,130.4 342,131.4 343.6,130.4 342,129.5 						"/>
					</g>
				</g>
				<g id="XMLID_1567_" class="st15">
					<g id="XMLID_776_">
						<polygon id="XMLID_1814_" class="st29" points="338.4,131.6 338.4,132.1 340,133.1 340,132.6 						"/>
					</g>
					<g id="XMLID_777_">
						<polygon id="XMLID_1813_" class="st26" points="340,132.6 340,133.1 341.6,132.2 341.6,131.6 						"/>
					</g>
					<g id="XMLID_778_">
						<polygon id="XMLID_1722_" class="st27" points="338.4,131.6 340,132.6 341.6,131.6 340,130.7 						"/>
					</g>
				</g>
				<g id="XMLID_1548_" class="st15">
					<g id="XMLID_779_">
						<polygon id="XMLID_1812_" class="st29" points="336.3,132.8 336.3,133.3 337.9,134.2 337.9,133.8 						"/>
					</g>
					<g id="XMLID_780_">
						<polygon id="XMLID_1811_" class="st26" points="337.9,133.8 337.9,134.2 339.6,133.4 339.6,132.8 						"/>
					</g>
					<g id="XMLID_781_">
						<polygon id="XMLID_1721_" class="st27" points="336.3,132.8 337.9,133.8 339.6,132.8 337.9,131.9 						"/>
					</g>
				</g>
				<g id="XMLID_1541_" class="st15">
					<g id="XMLID_782_">
						<polygon id="XMLID_1810_" class="st29" points="334.3,134 334.3,134.4 335.9,135.4 335.9,134.9 						"/>
					</g>
					<g id="XMLID_783_">
						<polygon id="XMLID_1809_" class="st26" points="335.9,134.9 335.9,135.4 337.5,134.5 337.5,134 						"/>
					</g>
					<g id="XMLID_784_">
						<polygon id="XMLID_1720_" class="st27" points="334.3,134 335.9,134.9 337.5,134 335.9,133.1 						"/>
					</g>
				</g>
				<g id="XMLID_1529_" class="st15">
					<g id="XMLID_785_">
						<polygon id="XMLID_1808_" class="st29" points="332.2,135.1 332.2,135.6 333.9,136.6 333.9,136.1 						"/>
					</g>
					<g id="XMLID_786_">
						<polygon id="XMLID_1807_" class="st26" points="333.9,136.1 333.9,136.6 335.5,135.7 335.5,135.1 						"/>
					</g>
					<g id="XMLID_787_">
						<polygon id="XMLID_1719_" class="st27" points="332.2,135.1 333.9,136.1 335.5,135.1 333.8,134.2 						"/>
					</g>
				</g>
				<g id="XMLID_1514_" class="st15">
					<g id="XMLID_788_">
						<polygon id="XMLID_1806_" class="st29" points="330.1,136.3 330.1,136.8 331.8,137.8 331.8,137.3 						"/>
					</g>
					<g id="XMLID_789_">
						<polygon id="XMLID_1805_" class="st26" points="331.8,137.3 331.8,137.8 333.4,136.9 333.4,136.3 						"/>
					</g>
					<g id="XMLID_790_">
						<polygon id="XMLID_1718_" class="st27" points="330.1,136.3 331.8,137.3 333.4,136.3 331.8,135.4 						"/>
					</g>
				</g>
				<g id="XMLID_1507_" class="st15">
					<g id="XMLID_791_">
						<polygon id="XMLID_1804_" class="st29" points="328.2,137.5 328.2,138.1 329.7,139 329.7,138.5 						"/>
					</g>
					<g id="XMLID_792_">
						<polygon id="XMLID_1803_" class="st26" points="329.7,138.5 329.7,139 331.3,138.1 331.3,137.5 						"/>
					</g>
					<g id="XMLID_793_">
						<polygon id="XMLID_1717_" class="st27" points="328.2,137.5 329.7,138.5 331.3,137.5 329.7,136.6 						"/>
					</g>
				</g>
				<g id="XMLID_1500_" class="st15">
					<g id="XMLID_794_">
						<polygon id="XMLID_1802_" class="st29" points="326.1,138.7 326.1,139.3 327.7,140.2 327.7,139.7 						"/>
					</g>
					<g id="XMLID_795_">
						<polygon id="XMLID_1801_" class="st26" points="327.7,139.7 327.7,140.2 329.3,139.3 329.3,138.7 						"/>
					</g>
					<g id="XMLID_796_">
						<polygon id="XMLID_1714_" class="st27" points="326.1,138.7 327.7,139.7 329.3,138.7 327.7,137.8 						"/>
					</g>
				</g>
				<g id="XMLID_1493_" class="st15">
					<g id="XMLID_797_">
						<polygon id="XMLID_1800_" class="st29" points="348.6,128 348.6,128.6 350.2,129.5 350.2,129 						"/>
					</g>
					<g id="XMLID_798_">
						<polygon id="XMLID_1799_" class="st26" points="350.2,129 350.2,129.5 353.9,127.5 353.9,126.9 						"/>
					</g>
					<g id="XMLID_799_">
						<polygon id="XMLID_1280_" class="st27" points="348.6,128 350.2,129 353.9,126.9 352.3,126 						"/>
					</g>
				</g>
				<g id="XMLID_1486_" class="st15">
					<g id="XMLID_800_">
						<polygon id="XMLID_1798_" class="st29" points="346.6,129.2 346.6,129.8 348.2,130.7 348.2,130.2 						"/>
					</g>
					<g id="XMLID_801_">
						<polygon id="XMLID_1797_" class="st26" points="348.2,130.2 348.2,130.7 349.8,129.8 349.8,129.3 						"/>
					</g>
					<g id="XMLID_802_">
						<polygon id="XMLID_1741_" class="st27" points="346.6,129.2 348.2,130.2 349.8,129.3 348.2,128.3 						"/>
					</g>
				</g>
				<g id="XMLID_1472_" class="st15">
					<g id="XMLID_803_">
						<polygon id="XMLID_1796_" class="st29" points="344.5,130.4 344.5,131 346.2,131.9 346.2,131.4 						"/>
					</g>
					<g id="XMLID_804_">
						<polygon id="XMLID_1795_" class="st26" points="346.2,131.4 346.2,131.9 347.8,131 347.8,130.5 						"/>
					</g>
					<g id="XMLID_805_">
						<polygon id="XMLID_1740_" class="st27" points="344.5,130.4 346.2,131.4 347.8,130.5 346.2,129.5 						"/>
					</g>
				</g>
				<g id="XMLID_1464_" class="st15">
					<g id="XMLID_806_">
						<polygon id="XMLID_1794_" class="st29" points="342.4,131.6 342.4,132.2 344.1,133.1 344.1,132.6 						"/>
					</g>
					<g id="XMLID_807_">
						<polygon id="XMLID_1793_" class="st26" points="344.1,132.6 344.1,133.1 345.7,132.2 345.7,131.7 						"/>
					</g>
					<g id="XMLID_808_">
						<polygon id="XMLID_1739_" class="st27" points="342.4,131.6 344.1,132.6 345.7,131.7 344.1,130.7 						"/>
					</g>
				</g>
				<g id="XMLID_1457_" class="st15">
					<g id="XMLID_809_">
						<polygon id="XMLID_1792_" class="st29" points="340.5,132.8 340.5,133.4 342,134.2 342,133.8 						"/>
					</g>
					<g id="XMLID_810_">
						<polygon id="XMLID_1791_" class="st26" points="342,133.8 342,134.2 343.6,133.4 343.6,132.9 						"/>
					</g>
					<g id="XMLID_811_">
						<polygon id="XMLID_1738_" class="st27" points="340.5,132.8 342,133.8 343.6,132.9 342,131.9 						"/>
					</g>
				</g>
				<g id="XMLID_1450_" class="st15">
					<g id="XMLID_812_">
						<polygon id="XMLID_1790_" class="st29" points="338.4,134 338.4,134.5 340,135.4 340,134.9 						"/>
					</g>
					<g id="XMLID_813_">
						<polygon id="XMLID_1789_" class="st26" points="340,134.9 340,135.4 341.7,134.5 341.7,134 						"/>
					</g>
					<g id="XMLID_814_">
						<polygon id="XMLID_1737_" class="st27" points="338.4,134 340,134.9 341.7,134 340,133.1 						"/>
					</g>
				</g>
				<g id="XMLID_1443_" class="st15">
					<g id="XMLID_815_">
						<polygon id="XMLID_1788_" class="st29" points="336.3,135.1 336.3,135.7 337.9,136.6 337.9,136.1 						"/>
					</g>
					<g id="XMLID_816_">
						<polygon id="XMLID_1787_" class="st26" points="337.9,136.1 337.9,136.6 339.6,135.7 339.6,135.2 						"/>
					</g>
					<g id="XMLID_817_">
						<polygon id="XMLID_1736_" class="st27" points="336.3,135.1 337.9,136.1 339.6,135.2 337.9,134.2 						"/>
					</g>
				</g>
				<g id="XMLID_1435_" class="st15">
					<g id="XMLID_818_">
						<polygon id="XMLID_1786_" class="st29" points="334.3,136.3 334.3,136.9 335.9,137.8 335.9,137.3 						"/>
					</g>
					<g id="XMLID_819_">
						<polygon id="XMLID_1785_" class="st26" points="335.9,137.3 335.9,137.8 337.5,136.9 337.5,136.4 						"/>
					</g>
					<g id="XMLID_820_">
						<polygon id="XMLID_1735_" class="st27" points="334.3,136.3 335.9,137.3 337.5,136.4 335.9,135.4 						"/>
					</g>
				</g>
				<g id="XMLID_1428_" class="st15">
					<g id="XMLID_821_">
						<polygon id="XMLID_1784_" class="st29" points="332.2,137.5 332.2,138.1 333.9,139 333.9,138.5 						"/>
					</g>
					<g id="XMLID_822_">
						<polygon id="XMLID_1783_" class="st26" points="333.9,138.5 333.9,139 335.5,138.1 335.5,137.6 						"/>
					</g>
					<g id="XMLID_823_">
						<polygon id="XMLID_1734_" class="st27" points="332.2,137.5 333.9,138.5 335.5,137.6 333.9,136.6 						"/>
					</g>
				</g>
				<g id="XMLID_1421_" class="st15">
					<g id="XMLID_824_">
						<polygon id="XMLID_1782_" class="st29" points="328.2,139.9 328.2,140.4 329.7,141.3 329.7,140.8 						"/>
					</g>
					<g id="XMLID_825_">
						<polygon id="XMLID_1781_" class="st26" points="329.7,140.8 329.7,141.3 333.4,139.3 333.4,138.8 						"/>
					</g>
					<g id="XMLID_826_">
						<polygon id="XMLID_1713_" class="st27" points="328.2,139.9 329.7,140.8 333.4,138.8 331.8,137.8 						"/>
					</g>
				</g>
				<g id="XMLID_1414_" class="st15">
					<g id="XMLID_827_">
						<polygon id="XMLID_1780_" class="st29" points="348.6,130.5 348.6,131 350.3,131.9 350.3,131.4 						"/>
					</g>
					<g id="XMLID_828_">
						<polygon id="XMLID_1779_" class="st26" points="350.3,131.4 350.3,131.9 356,128.6 356,128.1 						"/>
					</g>
					<g id="XMLID_829_">
						<polygon id="XMLID_1699_" class="st27" points="348.6,130.5 350.3,131.4 356,128.1 354.4,127.2 						"/>
					</g>
				</g>
				<g id="XMLID_1407_" class="st15">
					<g id="XMLID_830_">
						<polygon id="XMLID_1778_" class="st29" points="346.6,131.7 346.6,132.2 348.2,133.1 348.2,132.6 						"/>
					</g>
					<g id="XMLID_831_">
						<polygon id="XMLID_1777_" class="st26" points="348.2,132.6 348.2,133.1 349.8,132.2 349.8,131.7 						"/>
					</g>
					<g id="XMLID_832_">
						<polygon id="XMLID_1743_" class="st27" points="346.6,131.7 348.2,132.6 349.8,131.7 348.2,130.7 						"/>
					</g>
				</g>
				<g id="XMLID_1400_" class="st15">
					<g id="XMLID_833_">
						<polygon id="XMLID_1776_" class="st29" points="344.5,132.9 344.6,133.4 346.2,134.2 346.2,133.8 						"/>
					</g>
					<g id="XMLID_834_">
						<polygon id="XMLID_1775_" class="st26" points="346.2,133.8 346.2,134.2 347.8,133.4 347.8,132.9 						"/>
					</g>
					<g id="XMLID_835_">
						<polygon id="XMLID_1742_" class="st27" points="344.5,132.9 346.2,133.8 347.8,132.9 346.2,131.9 						"/>
					</g>
				</g>
				<g id="XMLID_1393_" class="st15">
					<g id="XMLID_836_">
						<polygon id="XMLID_1774_" class="st29" points="342.5,134 342.5,134.5 344.1,135.4 344.1,134.9 						"/>
					</g>
					<g id="XMLID_837_">
						<polygon id="XMLID_1773_" class="st26" points="344.1,134.9 344.1,135.4 345.7,134.5 345.7,134 						"/>
					</g>
					<g id="XMLID_838_">
						<polygon id="XMLID_1744_" class="st27" points="342.5,134 344.1,134.9 345.7,134 344.1,133.1 						"/>
					</g>
				</g>
				<g id="XMLID_1386_" class="st15">
					<g id="XMLID_839_">
						<polygon id="XMLID_1772_" class="st29" points="340.5,135.2 340.5,135.7 342,136.6 342,136.1 						"/>
					</g>
					<g id="XMLID_840_">
						<polygon id="XMLID_1771_" class="st26" points="342,136.1 342,136.6 343.7,135.7 343.7,135.2 						"/>
					</g>
					<g id="XMLID_841_">
						<polygon id="XMLID_1745_" class="st27" points="340.5,135.2 342,136.1 343.7,135.2 342,134.2 						"/>
					</g>
				</g>
				<g id="XMLID_1379_" class="st15">
					<g id="XMLID_842_">
						<polygon id="XMLID_1770_" class="st29" points="338.4,136.4 338.4,136.9 340.1,137.8 340.1,137.3 						"/>
					</g>
					<g id="XMLID_843_">
						<polygon id="XMLID_1769_" class="st26" points="340.1,137.3 340.1,137.8 341.7,136.9 341.7,136.4 						"/>
					</g>
					<g id="XMLID_844_">
						<polygon id="XMLID_1746_" class="st27" points="338.4,136.4 340.1,137.3 341.7,136.4 340,135.4 						"/>
					</g>
				</g>
				<g id="XMLID_1372_" class="st15">
					<g id="XMLID_845_">
						<polygon id="XMLID_1768_" class="st29" points="336.3,137.6 336.3,138.1 338,139 338,138.5 						"/>
					</g>
					<g id="XMLID_846_">
						<polygon id="XMLID_1767_" class="st26" points="338,138.5 338,139 339.6,138.1 339.6,137.6 						"/>
					</g>
					<g id="XMLID_847_">
						<polygon id="XMLID_1747_" class="st27" points="336.3,137.6 338,138.5 339.6,137.6 337.9,136.6 						"/>
					</g>
				</g>
				<g id="XMLID_1365_" class="st15">
					<g id="XMLID_848_">
						<polygon id="XMLID_1766_" class="st29" points="334.3,138.8 334.3,139.3 335.9,140.2 335.9,139.7 						"/>
					</g>
					<g id="XMLID_849_">
						<polygon id="XMLID_1765_" class="st26" points="335.9,139.7 335.9,140.2 337.5,139.3 337.5,138.8 						"/>
					</g>
					<g id="XMLID_850_">
						<polygon id="XMLID_1712_" class="st27" points="334.3,138.8 335.9,139.7 337.5,138.8 335.9,137.8 						"/>
					</g>
				</g>
				<g id="XMLID_1353_" class="st15">
					<g id="XMLID_851_">
						<polygon id="XMLID_1764_" class="st29" points="330.2,141.1 330.2,141.6 331.8,142.6 331.8,142 						"/>
					</g>
					<g id="XMLID_852_">
						<polygon id="XMLID_1763_" class="st26" points="331.8,142 331.8,142.6 335.5,140.4 335.5,140 						"/>
					</g>
					<g id="XMLID_853_">
						<polygon id="XMLID_1711_" class="st27" points="330.2,141.1 331.8,142 335.5,140 333.9,139 						"/>
					</g>
				</g>
				<g id="XMLID_1346_" class="st15">
					<g id="XMLID_854_">
						<polygon id="XMLID_1762_" class="st29" points="354.8,129.3 354.8,129.8 356.4,130.8 356.4,130.2 						"/>
					</g>
					<g id="XMLID_855_">
						<polygon id="XMLID_1761_" class="st26" points="356.4,130.2 356.4,130.8 358.1,129.8 358.1,129.3 						"/>
					</g>
					<g id="XMLID_856_">
						<polygon id="XMLID_1700_" class="st27" points="354.8,129.3 356.4,130.2 358.1,129.3 356.4,128.3 						"/>
					</g>
				</g>
				<g id="XMLID_1339_" class="st15">
					<g id="XMLID_857_">
						<polygon id="XMLID_1760_" class="st29" points="352.8,130.5 352.8,131 354.4,132 354.4,131.4 						"/>
					</g>
					<g id="XMLID_858_">
						<polygon id="XMLID_1759_" class="st26" points="354.4,131.4 354.4,132 356,131 356,130.5 						"/>
					</g>
					<g id="XMLID_859_">
						<polygon id="XMLID_1701_" class="st27" points="352.8,130.5 354.4,131.4 356,130.5 354.4,129.5 						"/>
					</g>
				</g>
				<g id="XMLID_1332_" class="st15">
					<g id="XMLID_860_">
						<polygon id="XMLID_1758_" class="st29" points="350.7,131.7 350.7,132.2 352.4,133.2 352.4,132.6 						"/>
					</g>
					<g id="XMLID_861_">
						<polygon id="XMLID_1757_" class="st26" points="352.4,132.6 352.4,133.2 354,132.2 354,131.7 						"/>
					</g>
					<g id="XMLID_862_">
						<polygon id="XMLID_1702_" class="st27" points="350.7,131.7 352.4,132.6 354,131.7 352.3,130.7 						"/>
					</g>
				</g>
				<g id="XMLID_1325_" class="st15">
					<g id="XMLID_863_">
						<polygon id="XMLID_1756_" class="st29" points="340.5,137.6 340.5,138.1 342.1,139.1 342.1,138.5 						"/>
					</g>
					<g id="XMLID_864_">
						<polygon id="XMLID_1755_" class="st26" points="342.1,138.5 342.1,139.1 351.9,133.4 351.9,132.9 						"/>
					</g>
					<g id="XMLID_865_">
						<polygon id="XMLID_1703_" class="st27" points="340.5,137.6 342.1,138.5 351.9,132.9 350.3,131.9 						"/>
					</g>
				</g>
				<g id="XMLID_1318_" class="st15">
					<g id="XMLID_866_">
						<polygon id="XMLID_1754_" class="st29" points="338.4,138.8 338.4,139.3 340.1,140.2 340.1,139.7 						"/>
					</g>
					<g id="XMLID_867_">
						<polygon id="XMLID_1753_" class="st26" points="340.1,139.7 340.1,140.2 341.7,139.3 341.7,138.8 						"/>
					</g>
					<g id="XMLID_868_">
						<polygon id="XMLID_1704_" class="st27" points="338.4,138.8 340.1,139.7 341.7,138.8 340,137.8 						"/>
					</g>
				</g>
				<g id="XMLID_1311_" class="st15">
					<g id="XMLID_869_">
						<polygon id="XMLID_1752_" class="st29" points="336.3,140 336.3,140.4 338,141.4 338,140.8 						"/>
					</g>
					<g id="XMLID_870_">
						<polygon id="XMLID_1751_" class="st26" points="338,140.8 338,141.4 339.6,140.4 339.6,140 						"/>
					</g>
					<g id="XMLID_871_">
						<polygon id="XMLID_1707_" class="st27" points="336.3,140 338,140.8 339.6,140 338,139 						"/>
					</g>
				</g>
				<g id="XMLID_1304_" class="st15">
					<g id="XMLID_872_">
						<polygon id="XMLID_1750_" class="st29" points="332.3,142.3 332.3,142.8 333.9,143.8 333.9,143.2 						"/>
					</g>
					<g id="XMLID_873_">
						<polygon id="XMLID_1749_" class="st26" points="333.9,143.2 333.9,143.8 337.5,141.6 337.5,141.1 						"/>
					</g>
					<g id="XMLID_874_">
						<polygon id="XMLID_1710_" class="st27" points="332.3,142.3 333.9,143.2 337.5,141.1 335.9,140.2 						"/>
					</g>
				</g>
			</g>
		</g>
		<g id="XMLID_903_">
			<g id="XMLID_904_">
				<polygon id="XMLID_1748_" class="st6" points="338.5,96.1 338.6,104.2 345.7,100.1 345.6,91.9 				"/>
			</g>
			<g id="XMLID_891_" class="st15">
				<g id="XMLID_906_">
					<polygon id="XMLID_1697_" class="st27" points="331.8,103.1 331.8,103.3 336.9,100.4 336.9,100.1 					"/>
				</g>
				<g id="XMLID_907_">
					<polygon id="XMLID_1696_" class="st27" points="331.8,102 331.8,102.4 336.9,99.4 336.9,99 					"/>
				</g>
				<g id="XMLID_908_">
					<polygon id="XMLID_1695_" class="st27" points="331.8,101 331.8,101.3 336.9,98.3 336.9,98 					"/>
				</g>
				<g id="XMLID_909_">
					<polygon id="XMLID_1694_" class="st27" points="331.8,100 331.8,100.3 336.9,97.3 336.9,97 					"/>
				</g>
			</g>
			<g id="XMLID_905_">
				<polygon id="XMLID_1693_" class="st27" points="331.8,105 331.8,105.4 336.9,102.5 336.9,102.1 				"/>
			</g>
			<g id="XMLID_910_">
				<polygon id="XMLID_1692_" class="st27" points="331.8,104 331.8,104.3 336.9,101.4 336.9,101.1 				"/>
			</g>
			<g id="XMLID_911_">
				<polygon id="XMLID_1691_" class="st27" points="333.1,105.3 333.1,105.6 336.9,103.4 336.9,103.1 				"/>
			</g>
			<g id="XMLID_605_" class="st15">
				<g id="XMLID_913_">
					<path id="XMLID_1690_" class="st12" d="M344.6,89.3c-0.1,0.1-0.2,0.3-0.2,0.4c0,0.2,0.1,0.2,0.2,0.1c0.1-0.1,0.3-0.3,0.2-0.4
						C344.9,89.3,344.8,89.2,344.6,89.3z"/>
				</g>
				<g id="XMLID_914_">
					<path id="XMLID_915_" class="st27" d="M346.9,87.5l-3,1.8L330.7,97c-0.3,0.1-0.5,0.5-0.5,0.8v2.3c0-0.3,0.2-0.7,0.4-0.8
						l15.2-8.8l1.1-0.7c0,0,0.1,0,0.1,0c0,0,0,0,0,0c0.2,0,0.3,0.1,0.3,0.3v-2.3C347.4,87.5,347.2,87.3,346.9,87.5z M346.4,88.6
						C346.4,88.6,346.4,88.6,346.4,88.6c0-0.1,0.1-0.3,0.2-0.4c0.1-0.1,0.2-0.1,0.2,0c0,0,0,0,0,0c0,0,0,0,0,0.1
						c0,0.1-0.1,0.3-0.2,0.4C346.5,88.8,346.4,88.7,346.4,88.6C346.4,88.6,346.4,88.6,346.4,88.6z M345.5,88.8
						C345.5,88.8,345.5,88.8,345.5,88.8L345.5,88.8c0.2-0.1,0.3-0.1,0.3,0.1c0,0,0,0,0,0c0.1,0.1-0.1,0.3-0.2,0.4
						c-0.1,0-0.2,0-0.3-0.1C345.3,89.1,345.4,88.9,345.5,88.8z M344.5,89.3c0.1-0.1,0.2-0.1,0.2,0c0,0,0,0,0,0c0,0,0,0.1,0,0.1
						c0.1,0.1-0.1,0.3-0.2,0.4l0,0c0,0-0.1,0.1-0.1,0c-0.1,0-0.1-0.1-0.2-0.2c0,0,0-0.1,0-0.1C344.4,89.5,344.4,89.3,344.5,89.3z"/>
				</g>
				<g id="XMLID_916_">
					<path id="XMLID_917_" class="st19" d="M347.1,89.7C347,89.7,347,89.7,347.1,89.7c-0.1,0-0.1,0-0.2,0l-1.1,0.6l-15.2,8.8
						c-0.1,0.1-0.2,0.2-0.3,0.4c-0.1,0.1-0.1,0.2-0.1,0.4v10.6c0,0.3,0.2,0.4,0.4,0.3l16.3-9.4c0.2-0.2,0.4-0.5,0.4-0.8V90.1
						C347.3,89.9,347.2,89.8,347.1,89.7z M336.9,103.4l-3.8,2.2v-0.3l3.8-2.2V103.4z M336.9,102.5l-5.1,2.9v-0.3l5.1-3V102.5z
						 M336.9,101.4l-5.1,3V104l5.1-3V101.4z M336.9,100.4l-5.1,3V103l5.1-3V100.4z M336.9,99.4l-5.1,3v-0.3l5.1-3V99.4z M336.9,98.3
						l-5.1,3V101l5.1-2.9V98.3z M336.9,97.3l-5.1,3V100l5.1-3V97.3z M345.7,100.1l-7.1,4.1v-8.2l7-4.1l0.1-0.1V100.1z"/>
				</g>
			</g>
			<g id="XMLID_912_">
				<path id="XMLID_1676_" class="st11" d="M346.6,88.1c-0.1,0.1-0.2,0.3-0.2,0.4c0,0.2,0.1,0.2,0.2,0.1s0.2-0.3,0.2-0.4
					C346.9,88.1,346.8,88,346.6,88.1z"/>
			</g>
			<g id="XMLID_918_">
				<path id="XMLID_1675_" class="st6" d="M345.6,88.7c-0.1,0.1-0.2,0.3-0.2,0.4c0,0.2,0.1,0.2,0.2,0.1s0.3-0.3,0.2-0.4
					C345.9,88.7,345.8,88.6,345.6,88.7z"/>
			</g>
		</g>
		<g id="XMLID_730_">
			<path id="XMLID_887_" class="st26" d="M372.9,122.3c0,0.1,0,0.1-0.1,0.2l-3.3,1.9l-0.6-0.4c0.9-0.5,2.9-1.6,3.9-2.2
				C372.9,122,372.9,122.1,372.9,122.3z"/>
			<path id="XMLID_886_" class="st30" d="M372.9,121.8c-1.1,0.6-3,1.7-3.9,2.2l-6.8-4.3c0.6-0.3,1.2-0.7,1.8-1
				c1.1-0.6,2.4-1.5,3.5-1.6c1-0.1,2,0.3,2.8,0.8C371.2,118.3,372.7,119.3,372.9,121.8z"/>
			<path id="XMLID_883_" class="st29" d="M369.4,124.4c0.2,0.1,0.4,0,0.3-0.2c-0.1-2.9-2-3.8-2.8-4.2c-0.8-0.5-3.1-1.4-4.9-0.1
				c-0.1,0.1-0.1,0.3,0,0.4C364.8,121.7,368.2,123.7,369.4,124.4z"/>
		</g>
	</g>
	<g id="XMLID_919_">
		<g id="XMLID_920_">
			<path id="XMLID_921_" class="st26" d="M275.1,73.7l-1.2,0.7c0.2-0.1,0.3-0.4,0.3-0.8l1.2-0.7C275.4,73.4,275.3,73.6,275.1,73.7z"
				/>
			<g id="XMLID_922_">
				<path id="XMLID_923_" class="st26" d="M241.3,27.6l1.2-0.7c0.2-0.1,0.5-0.1,0.8,0.1l-1.2,0.7C241.8,27.5,241.5,27.5,241.3,27.6z
					"/>
				<g id="XMLID_924_">
					<polygon id="XMLID_925_" class="st26" points="274.3,47.6 275.5,47 275.4,73 274.3,73.7 					"/>
					<polygon id="XMLID_926_" class="st26" points="242.2,27.7 243.2,27 274.3,45 273.3,45.7 					"/>
					<path id="XMLID_927_" class="st26" d="M273.3,45.7l1.2-0.7c0.6,0.4,1.2,1.3,1.2,2l-1.2,0.7C274.3,46.9,273.9,46,273.3,45.7z"/>
					<path id="XMLID_928_" class="st2" d="M273.3,45.7c0.6,0.4,1.2,1.3,1.2,2l-0.1,26.1c0,0.7-0.5,1-1.2,0.7l-31.1-18
						c-0.7-0.4-1.2-1.3-1.2-2l0.1-26.1c0-0.7,0.5-1,1.2-0.7L273.3,45.7z"/>
					<polygon id="XMLID_1674_" class="st28" points="242.1,30.3 242.1,53.7 273.2,71.8 273.3,48.2 					"/>
				</g>
			</g>
			<g id="XMLID_929_">
				<g id="XMLID_930_">
					<path id="XMLID_931_" class="st31" d="M273.7,75v1.4c0,0.2-0.2,0.5-0.5,0.7v-1.4C273.5,75.5,273.7,75.3,273.7,75z"/>
					<path id="XMLID_932_" class="st31" d="M250.8,88.6V90c-0.6,0.4-1.7,0.4-2.3,0v-1.4C249.2,89,250.2,89,250.8,88.6z"/>
					<path id="XMLID_933_" class="st31" d="M217,71.3v-1.4c0,0.2,0.2,0.5,0.5,0.7V72C217.1,71.8,217,71.6,217,71.3z"/>
					<polygon id="XMLID_934_" class="st31" points="273.2,75.7 273.2,77 250.8,90 250.8,88.6 					"/>
					<polygon id="XMLID_935_" class="st31" points="248.6,88.6 248.6,90 217.5,72 217.5,70.7 					"/>
					<path id="XMLID_936_" class="st26" d="M273.2,74.3c0.6,0.4,0.6,1,0,1.4l-22.3,12.9c-0.6,0.4-1.7,0.4-2.3,0l-31.1-18
						c-0.7-0.4-0.6-1,0-1.4l22.3-12.9c0.6-0.4,1.7-0.4,2.3,0L273.2,74.3z"/>
				</g>
				<g id="XMLID_937_">
					<g id="XMLID_575_" class="st15">
						<g id="XMLID_939_">
							<path id="XMLID_940_" class="st27" d="M247.9,77.8l-11.4-6.7c-0.3-0.2-0.8-0.2-1.2,0l-5.9,3.4c-0.3,0.2-0.3,0.5,0,0.7
								l11.5,6.6c0.3,0.2,0.9,0.2,1.2,0l5.9-3.4C248.3,78.2,248.3,77.9,247.9,77.8L247.9,77.8z"/>
						</g>
					</g>
				</g>
				<g id="XMLID_938_">
					<g id="XMLID_567_" class="st15">
						<g id="XMLID_942_">
							<polygon id="XMLID_943_" class="st2" points="242.4,58.4 242.4,58.8 240.3,59.9 240.3,59.7 							"/>
						</g>
						<g id="XMLID_944_">
							<polygon id="XMLID_945_" class="st2" points="240.3,59.7 240.3,59.9 238.2,58.8 238.2,58.5 							"/>
						</g>
						<g id="XMLID_946_">
							<polygon id="XMLID_947_" class="st14" points="242.4,58.4 240.3,59.7 238.2,58.5 240.3,57.2 							"/>
						</g>
					</g>
					<g id="XMLID_560_" class="st15">
						<g id="XMLID_948_">
							<polygon id="XMLID_949_" class="st2" points="245,59.9 245,60.2 243,61.5 243,61.1 							"/>
						</g>
						<g id="XMLID_950_">
							<polygon id="XMLID_951_" class="st2" points="243,61.1 243,61.5 240.9,60.3 240.9,59.9 							"/>
						</g>
						<g id="XMLID_952_">
							<polygon id="XMLID_953_" class="st14" points="245,59.9 243,61.1 240.9,59.9 243,58.8 							"/>
						</g>
					</g>
					<g id="XMLID_553_" class="st15">
						<g id="XMLID_954_">
							<polygon id="XMLID_955_" class="st2" points="247.7,61.4 247.7,61.8 245.6,63 245.6,62.7 							"/>
						</g>
						<g id="XMLID_956_">
							<polygon id="XMLID_957_" class="st2" points="245.6,62.7 245.6,63 243.5,61.8 243.5,61.5 							"/>
						</g>
						<g id="XMLID_958_">
							<polygon id="XMLID_959_" class="st14" points="247.7,61.4 245.6,62.7 243.5,61.5 245.6,60.2 							"/>
						</g>
					</g>
					<g id="XMLID_546_" class="st15">
						<g id="XMLID_960_">
							<polygon id="XMLID_961_" class="st2" points="250.3,63 250.3,63.3 248.2,64.6 248.3,64.2 							"/>
						</g>
						<g id="XMLID_962_">
							<polygon id="XMLID_963_" class="st2" points="248.3,64.2 248.2,64.6 246.2,63.4 246.2,63 							"/>
						</g>
						<g id="XMLID_964_">
							<polygon id="XMLID_965_" class="st14" points="250.3,63 248.3,64.2 246.2,63 248.3,61.8 							"/>
						</g>
					</g>
					<g id="XMLID_539_" class="st15">
						<g id="XMLID_966_">
							<polygon id="XMLID_967_" class="st2" points="253,64.5 253,64.9 250.8,66 250.8,65.8 							"/>
						</g>
						<g id="XMLID_968_">
							<polygon id="XMLID_969_" class="st2" points="250.8,65.8 250.8,66 248.8,64.9 248.8,64.6 							"/>
						</g>
						<g id="XMLID_970_">
							<polygon id="XMLID_971_" class="st14" points="253,64.5 250.8,65.8 248.8,64.6 250.9,63.3 							"/>
						</g>
					</g>
					<g id="XMLID_532_" class="st15">
						<g id="XMLID_972_">
							<polygon id="XMLID_973_" class="st2" points="255.6,66 255.6,66.3 253.5,67.6 253.5,67.2 							"/>
						</g>
						<g id="XMLID_974_">
							<polygon id="XMLID_975_" class="st2" points="253.5,67.2 253.5,67.6 251.4,66.4 251.4,66 							"/>
						</g>
						<g id="XMLID_976_">
							<polygon id="XMLID_977_" class="st14" points="255.6,66 253.5,67.2 251.4,66 253.6,64.9 							"/>
						</g>
					</g>
					<g id="XMLID_525_" class="st15">
						<g id="XMLID_978_">
							<polygon id="XMLID_979_" class="st2" points="258.2,67.5 258.2,67.9 256.1,69.1 256.1,68.8 							"/>
						</g>
						<g id="XMLID_980_">
							<polygon id="XMLID_981_" class="st2" points="256.1,68.8 256.1,69.1 254.1,67.9 254.1,67.6 							"/>
						</g>
						<g id="XMLID_982_">
							<polygon id="XMLID_983_" class="st14" points="258.2,67.5 256.1,68.8 254.1,67.6 256.1,66.3 							"/>
						</g>
					</g>
					<g id="XMLID_1_" class="st15">
						<g id="XMLID_984_">
							<polygon id="XMLID_985_" class="st2" points="260.9,69.1 260.9,69.4 258.8,70.7 258.8,70.3 							"/>
						</g>
						<g id="XMLID_986_">
							<polygon id="XMLID_987_" class="st2" points="258.8,70.3 258.8,70.7 256.7,69.5 256.7,69.1 							"/>
						</g>
						<g id="XMLID_988_">
							<polygon id="XMLID_989_" class="st14" points="260.9,69.1 258.8,70.3 256.7,69.1 258.8,67.9 							"/>
						</g>
					</g>
					<g id="XMLID_511_" class="st15">
						<g id="XMLID_990_">
							<polygon id="XMLID_991_" class="st2" points="263.5,70.6 263.5,71 261.5,72.2 261.5,71.9 							"/>
						</g>
						<g id="XMLID_992_">
							<polygon id="XMLID_993_" class="st2" points="261.5,71.9 261.5,72.2 259.4,71 259.4,70.7 							"/>
						</g>
						<g id="XMLID_994_">
							<polygon id="XMLID_995_" class="st14" points="263.5,70.6 261.5,71.9 259.4,70.7 261.5,69.4 							"/>
						</g>
					</g>
					<g id="XMLID_504_" class="st15">
						<g id="XMLID_996_">
							<polygon id="XMLID_997_" class="st2" points="266.2,72.2 266.2,72.4 264.1,73.7 264.1,73.3 							"/>
						</g>
						<g id="XMLID_998_">
							<polygon id="XMLID_999_" class="st2" points="264.1,73.3 264.1,73.7 262,72.5 262,72.2 							"/>
						</g>
						<g id="XMLID_1000_">
							<polygon id="XMLID_1001_" class="st14" points="266.2,72.2 264.1,73.3 262,72.2 264.1,71 							"/>
						</g>
					</g>
					<g id="XMLID_497_" class="st15">
						<g id="XMLID_1002_">
							<polygon id="XMLID_1003_" class="st2" points="271.5,75.2 271.5,75.5 269.3,76.8 269.3,76.4 							"/>
						</g>
						<g id="XMLID_1004_">
							<polygon id="XMLID_1005_" class="st2" points="269.3,76.4 269.3,76.8 264.6,74 264.6,73.7 							"/>
						</g>
						<g id="XMLID_1006_">
							<polygon id="XMLID_1007_" class="st14" points="271.5,75.2 269.3,76.4 264.6,73.7 266.8,72.4 							"/>
						</g>
					</g>
					<g id="XMLID_490_" class="st15">
						<g id="XMLID_1008_">
							<polygon id="XMLID_1009_" class="st2" points="242.4,61.5 242.4,61.8 240.3,63 240.3,62.7 							"/>
						</g>
						<g id="XMLID_1010_">
							<polygon id="XMLID_1011_" class="st2" points="240.3,62.7 240.3,63 235.6,60.3 235.6,59.9 							"/>
						</g>
						<g id="XMLID_1012_">
							<polygon id="XMLID_1013_" class="st14" points="242.4,61.5 240.3,62.7 235.6,59.9 237.6,58.8 							"/>
						</g>
					</g>
					<g id="XMLID_483_" class="st15">
						<g id="XMLID_1014_">
							<polygon id="XMLID_1015_" class="st2" points="245,63 245,63.4 243,64.6 243,64.3 							"/>
						</g>
						<g id="XMLID_1016_">
							<polygon id="XMLID_1017_" class="st2" points="243,64.3 243,64.6 240.9,63.4 240.9,63 							"/>
						</g>
						<g id="XMLID_1018_">
							<polygon id="XMLID_1019_" class="st14" points="245,63 243,64.3 240.9,63 243,61.8 							"/>
						</g>
					</g>
					<g id="XMLID_476_" class="st15">
						<g id="XMLID_1020_">
							<polygon id="XMLID_1021_" class="st2" points="247.7,64.6 247.7,64.9 245.5,66 245.5,65.8 							"/>
						</g>
						<g id="XMLID_1022_">
							<polygon id="XMLID_1023_" class="st2" points="245.5,65.8 245.5,66 243.4,64.9 243.4,64.6 							"/>
						</g>
						<g id="XMLID_1024_">
							<polygon id="XMLID_1025_" class="st14" points="247.7,64.6 245.5,65.8 243.4,64.6 245.6,63.4 							"/>
						</g>
					</g>
					<g id="XMLID_469_" class="st15">
						<g id="XMLID_1026_">
							<polygon id="XMLID_1027_" class="st2" points="250.2,66 250.2,66.4 248.2,67.6 248.2,67.3 							"/>
						</g>
						<g id="XMLID_1028_">
							<polygon id="XMLID_1029_" class="st2" points="248.2,67.3 248.2,67.6 246.1,66.4 246.1,66 							"/>
						</g>
						<g id="XMLID_1030_">
							<polygon id="XMLID_1031_" class="st14" points="250.2,66 248.2,67.3 246.1,66 248.3,64.9 							"/>
						</g>
					</g>
					<g id="XMLID_462_" class="st15">
						<g id="XMLID_1032_">
							<polygon id="XMLID_1033_" class="st2" points="252.9,67.6 252.9,67.9 250.8,69.1 250.8,68.8 							"/>
						</g>
						<g id="XMLID_1034_">
							<polygon id="XMLID_1035_" class="st2" points="250.8,68.8 250.8,69.1 248.8,67.9 248.8,67.6 							"/>
						</g>
						<g id="XMLID_1036_">
							<polygon id="XMLID_1037_" class="st14" points="252.9,67.6 250.8,68.8 248.8,67.6 250.8,66.4 							"/>
						</g>
					</g>
					<g id="XMLID_455_" class="st15">
						<g id="XMLID_1038_">
							<polygon id="XMLID_1039_" class="st2" points="255.6,69.1 255.6,69.5 253.5,70.7 253.5,70.4 							"/>
						</g>
						<g id="XMLID_1040_">
							<polygon id="XMLID_1041_" class="st2" points="253.5,70.4 253.5,70.7 251.4,69.5 251.4,69.1 							"/>
						</g>
						<g id="XMLID_1042_">
							<polygon id="XMLID_1043_" class="st14" points="255.6,69.1 253.5,70.4 251.4,69.1 253.5,67.9 							"/>
						</g>
					</g>
					<g id="XMLID_448_" class="st15">
						<g id="XMLID_1044_">
							<polygon id="XMLID_1045_" class="st2" points="258.2,70.7 258.2,71 256.1,72.2 256.1,71.9 							"/>
						</g>
						<g id="XMLID_1046_">
							<polygon id="XMLID_1047_" class="st2" points="256.1,71.9 256.1,72.2 254.1,71 254.1,70.7 							"/>
						</g>
						<g id="XMLID_1048_">
							<polygon id="XMLID_1049_" class="st14" points="258.2,70.7 256.1,71.9 254.1,70.7 256.1,69.5 							"/>
						</g>
					</g>
					<g id="XMLID_441_" class="st15">
						<g id="XMLID_1050_">
							<polygon id="XMLID_1051_" class="st2" points="260.9,72.2 260.9,72.5 258.8,73.7 258.8,73.4 							"/>
						</g>
						<g id="XMLID_1052_">
							<polygon id="XMLID_1053_" class="st2" points="258.8,73.4 258.8,73.7 256.7,72.5 256.7,72.2 							"/>
						</g>
						<g id="XMLID_1054_">
							<polygon id="XMLID_1055_" class="st14" points="260.9,72.2 258.8,73.4 256.7,72.2 258.8,71 							"/>
						</g>
					</g>
					<g id="XMLID_434_" class="st15">
						<g id="XMLID_1056_">
							<polygon id="XMLID_1057_" class="st2" points="263.5,73.7 263.5,74 261.4,75.2 261.4,74.9 							"/>
						</g>
						<g id="XMLID_1058_">
							<polygon id="XMLID_1059_" class="st2" points="261.4,74.9 261.4,75.2 259.4,74 259.4,73.7 							"/>
						</g>
						<g id="XMLID_1060_">
							<polygon id="XMLID_1061_" class="st14" points="263.5,73.7 261.4,74.9 259.4,73.7 261.5,72.5 							"/>
						</g>
					</g>
					<g id="XMLID_427_" class="st15">
						<g id="XMLID_1062_">
							<polygon id="XMLID_1063_" class="st2" points="266.2,75.2 266.2,75.6 264,76.8 264,76.4 							"/>
						</g>
						<g id="XMLID_1064_">
							<polygon id="XMLID_1065_" class="st2" points="264,76.4 264,76.8 261.9,75.6 261.9,75.2 							"/>
						</g>
						<g id="XMLID_1066_">
							<polygon id="XMLID_1067_" class="st14" points="266.2,75.2 264,76.4 261.9,75.2 264.1,74 							"/>
						</g>
					</g>
					<g id="XMLID_420_" class="st15">
						<g id="XMLID_1068_">
							<polygon id="XMLID_1069_" class="st2" points="268.7,76.8 268.7,77.1 266.7,78.3 266.7,78 							"/>
						</g>
						<g id="XMLID_1070_">
							<polygon id="XMLID_1071_" class="st2" points="266.7,78 266.7,78.3 264.6,77.1 264.6,76.8 							"/>
						</g>
						<g id="XMLID_1072_">
							<polygon id="XMLID_1073_" class="st14" points="268.7,76.8 266.7,78 264.6,76.8 266.7,75.6 							"/>
						</g>
					</g>
					<g id="XMLID_413_" class="st15">
						<g id="XMLID_1074_">
							<polygon id="XMLID_1075_" class="st2" points="239.7,63 239.7,63.4 237.6,64.6 237.6,64.3 							"/>
						</g>
						<g id="XMLID_1076_">
							<polygon id="XMLID_1077_" class="st2" points="237.6,64.3 237.6,64.6 232.9,61.9 232.9,61.5 							"/>
						</g>
						<g id="XMLID_1078_">
							<polygon id="XMLID_1079_" class="st14" points="239.7,63 237.6,64.3 232.9,61.5 235,60.3 							"/>
						</g>
					</g>
					<g id="XMLID_406_" class="st15">
						<g id="XMLID_1080_">
							<polygon id="XMLID_1081_" class="st2" points="242.4,64.6 242.4,64.9 240.3,66.1 240.3,65.8 							"/>
						</g>
						<g id="XMLID_1082_">
							<polygon id="XMLID_1083_" class="st2" points="240.3,65.8 240.3,66.1 238.2,65 238.2,64.6 							"/>
						</g>
						<g id="XMLID_1084_">
							<polygon id="XMLID_1085_" class="st14" points="242.4,64.6 240.3,65.8 238.2,64.6 240.3,63.4 							"/>
						</g>
					</g>
					<g id="XMLID_399_" class="st15">
						<g id="XMLID_1086_">
							<polygon id="XMLID_1087_" class="st2" points="245,66 245,66.4 242.9,67.6 242.9,67.3 							"/>
						</g>
						<g id="XMLID_1088_">
							<polygon id="XMLID_1089_" class="st2" points="242.9,67.3 242.9,67.6 240.8,66.4 240.8,66.1 							"/>
						</g>
						<g id="XMLID_1090_">
							<polygon id="XMLID_1091_" class="st14" points="245,66 242.9,67.3 240.8,66.1 243,64.9 							"/>
						</g>
					</g>
					<g id="XMLID_392_" class="st15">
						<g id="XMLID_1092_">
							<polygon id="XMLID_1093_" class="st2" points="247.6,67.6 247.6,67.9 245.5,69.2 245.5,68.8 							"/>
						</g>
						<g id="XMLID_1094_">
							<polygon id="XMLID_1095_" class="st2" points="245.5,68.8 245.5,69.2 243.4,68 243.4,67.6 							"/>
						</g>
						<g id="XMLID_1096_">
							<polygon id="XMLID_1097_" class="st14" points="247.6,67.6 245.5,68.8 243.4,67.6 245.5,66.4 							"/>
						</g>
					</g>
					<g id="XMLID_385_" class="st15">
						<g id="XMLID_1098_">
							<polygon id="XMLID_1099_" class="st2" points="250.2,69.1 250.2,69.5 248.2,70.7 248.2,70.4 							"/>
						</g>
						<g id="XMLID_1100_">
							<polygon id="XMLID_1101_" class="st2" points="248.2,70.4 248.2,70.7 246.1,69.5 246.1,69.2 							"/>
						</g>
						<g id="XMLID_1102_">
							<polygon id="XMLID_1103_" class="st14" points="250.2,69.1 248.2,70.4 246.1,69.2 248.2,67.9 							"/>
						</g>
					</g>
					<g id="XMLID_378_" class="st15">
						<g id="XMLID_1104_">
							<polygon id="XMLID_1105_" class="st2" points="252.9,70.7 252.9,71 250.8,72.2 250.8,71.9 							"/>
						</g>
						<g id="XMLID_1106_">
							<polygon id="XMLID_1107_" class="st2" points="250.8,71.9 250.8,72.2 248.8,71.1 248.8,70.7 							"/>
						</g>
						<g id="XMLID_1108_">
							<polygon id="XMLID_1109_" class="st14" points="252.9,70.7 250.8,71.9 248.8,70.7 250.8,69.5 							"/>
						</g>
					</g>
					<g id="XMLID_371_" class="st15">
						<g id="XMLID_1110_">
							<polygon id="XMLID_1111_" class="st2" points="255.6,72.2 255.6,72.5 253.5,73.7 253.5,73.4 							"/>
						</g>
						<g id="XMLID_1112_">
							<polygon id="XMLID_1113_" class="st2" points="253.5,73.4 253.5,73.7 251.4,72.5 251.4,72.2 							"/>
						</g>
						<g id="XMLID_1114_">
							<polygon id="XMLID_1115_" class="st14" points="255.6,72.2 253.5,73.4 251.4,72.2 253.5,71 							"/>
						</g>
					</g>
					<g id="XMLID_364_" class="st15">
						<g id="XMLID_1116_">
							<polygon id="XMLID_1117_" class="st2" points="258.2,73.7 258.2,74 256.1,75.3 256.1,74.9 							"/>
						</g>
						<g id="XMLID_1118_">
							<polygon id="XMLID_1119_" class="st2" points="256.1,74.9 256.1,75.3 254.1,74.1 254.1,73.7 							"/>
						</g>
						<g id="XMLID_1120_">
							<polygon id="XMLID_1121_" class="st14" points="258.2,73.7 256.1,74.9 254.1,73.7 256.1,72.5 							"/>
						</g>
					</g>
					<g id="XMLID_357_" class="st15">
						<g id="XMLID_1122_">
							<polygon id="XMLID_1123_" class="st2" points="260.9,75.2 260.9,75.6 258.7,76.8 258.7,76.5 							"/>
						</g>
						<g id="XMLID_1124_">
							<polygon id="XMLID_1125_" class="st2" points="258.7,76.5 258.7,76.8 256.6,75.6 256.6,75.3 							"/>
						</g>
						<g id="XMLID_1126_">
							<polygon id="XMLID_1127_" class="st14" points="260.9,75.2 258.7,76.5 256.6,75.3 258.8,74 							"/>
						</g>
					</g>
					<g id="XMLID_350_" class="st15">
						<g id="XMLID_1128_">
							<polygon id="XMLID_1129_" class="st2" points="266.1,78.3 266.1,78.6 264,79.8 264,79.5 							"/>
						</g>
						<g id="XMLID_1130_">
							<polygon id="XMLID_1131_" class="st2" points="264,79.5 264,79.8 259.3,77.2 259.3,76.8 							"/>
						</g>
						<g id="XMLID_1132_">
							<polygon id="XMLID_1133_" class="st14" points="266.1,78.3 264,79.5 259.3,76.8 261.5,75.6 							"/>
						</g>
					</g>
					<g id="XMLID_343_" class="st15">
						<g id="XMLID_1134_">
							<polygon id="XMLID_1135_" class="st2" points="239.7,66.1 239.7,66.4 237.5,67.6 237.5,67.3 							"/>
						</g>
						<g id="XMLID_1136_">
							<polygon id="XMLID_1137_" class="st2" points="237.5,67.3 237.5,67.6 230.3,63.4 230.3,63.1 							"/>
						</g>
						<g id="XMLID_1138_">
							<polygon id="XMLID_1139_" class="st14" points="239.7,66.1 237.5,67.3 230.3,63.1 232.3,61.9 							"/>
						</g>
					</g>
					<g id="XMLID_336_" class="st15">
						<g id="XMLID_1140_">
							<polygon id="XMLID_1141_" class="st2" points="242.4,67.6 242.4,68 240.2,69.2 240.2,68.8 							"/>
						</g>
						<g id="XMLID_1142_">
							<polygon id="XMLID_1143_" class="st2" points="240.2,68.8 240.2,69.2 238.1,68 238.1,67.6 							"/>
						</g>
						<g id="XMLID_1144_">
							<polygon id="XMLID_1145_" class="st14" points="242.4,67.6 240.2,68.8 238.1,67.6 240.3,66.4 							"/>
						</g>
					</g>
					<g id="XMLID_329_" class="st15">
						<g id="XMLID_1146_">
							<polygon id="XMLID_1147_" class="st2" points="244.9,69.2 244.9,69.5 242.9,70.7 242.9,70.4 							"/>
						</g>
						<g id="XMLID_1148_">
							<polygon id="XMLID_1149_" class="st2" points="242.9,70.4 242.9,70.7 240.8,69.5 240.8,69.2 							"/>
						</g>
						<g id="XMLID_1150_">
							<polygon id="XMLID_1151_" class="st14" points="244.9,69.2 242.9,70.4 240.8,69.2 242.9,68 							"/>
						</g>
					</g>
					<g id="XMLID_322_" class="st15">
						<g id="XMLID_1152_">
							<polygon id="XMLID_1153_" class="st2" points="247.6,70.7 247.6,71.1 245.5,72.2 245.5,71.9 							"/>
						</g>
						<g id="XMLID_1154_">
							<polygon id="XMLID_1155_" class="st2" points="245.5,71.9 245.5,72.2 243.4,71.1 243.4,70.7 							"/>
						</g>
						<g id="XMLID_1156_">
							<polygon id="XMLID_1157_" class="st14" points="247.6,70.7 245.5,71.9 243.4,70.7 245.5,69.5 							"/>
						</g>
					</g>
					<g id="XMLID_315_" class="st15">
						<g id="XMLID_1158_">
							<polygon id="XMLID_1159_" class="st2" points="250.2,72.2 250.2,72.5 248.2,73.7 248.2,73.4 							"/>
						</g>
						<g id="XMLID_1160_">
							<polygon id="XMLID_1161_" class="st2" points="248.2,73.4 248.2,73.7 246.1,72.5 246.1,72.2 							"/>
						</g>
						<g id="XMLID_1162_">
							<polygon id="XMLID_1163_" class="st14" points="250.2,72.2 248.2,73.4 246.1,72.2 248.2,71.1 							"/>
						</g>
					</g>
					<g id="XMLID_308_" class="st15">
						<g id="XMLID_1164_">
							<polygon id="XMLID_1165_" class="st2" points="252.9,73.7 252.9,74.1 250.8,75.3 250.8,74.9 							"/>
						</g>
						<g id="XMLID_1166_">
							<polygon id="XMLID_1167_" class="st2" points="250.8,74.9 250.8,75.3 248.8,74.1 248.8,73.7 							"/>
						</g>
						<g id="XMLID_1168_">
							<polygon id="XMLID_1169_" class="st14" points="252.9,73.7 250.8,74.9 248.8,73.7 250.8,72.5 							"/>
						</g>
					</g>
					<g id="XMLID_301_" class="st15">
						<g id="XMLID_1170_">
							<polygon id="XMLID_1171_" class="st2" points="255.6,75.3 255.6,75.6 253.5,76.8 253.5,76.5 							"/>
						</g>
						<g id="XMLID_1172_">
							<polygon id="XMLID_1173_" class="st2" points="253.5,76.5 253.5,76.8 251.4,75.6 251.4,75.3 							"/>
						</g>
						<g id="XMLID_1174_">
							<polygon id="XMLID_1175_" class="st14" points="255.6,75.3 253.5,76.5 251.4,75.3 253.5,74.1 							"/>
						</g>
					</g>
					<g id="XMLID_294_" class="st15">
						<g id="XMLID_1176_">
							<polygon id="XMLID_1177_" class="st2" points="258.2,76.8 258.2,77.2 256,78.4 256,78 							"/>
						</g>
						<g id="XMLID_1178_">
							<polygon id="XMLID_1179_" class="st2" points="256,78 256,78.4 254,77.2 254,76.8 							"/>
						</g>
						<g id="XMLID_1180_">
							<polygon id="XMLID_1181_" class="st14" points="258.2,76.8 256,78 254,76.8 256.1,75.6 							"/>
						</g>
					</g>
					<g id="XMLID_287_" class="st15">
						<g id="XMLID_1182_">
							<polygon id="XMLID_1183_" class="st2" points="263.4,79.8 263.4,80.2 261.4,81.4 261.4,81 							"/>
						</g>
						<g id="XMLID_1184_">
							<polygon id="XMLID_1185_" class="st2" points="261.4,81 261.4,81.4 256.6,78.6 256.6,78.4 							"/>
						</g>
						<g id="XMLID_1186_">
							<polygon id="XMLID_1187_" class="st14" points="263.4,79.8 261.4,81 256.6,78.4 258.7,77.2 							"/>
						</g>
					</g>
					<g id="XMLID_280_" class="st15">
						<g id="XMLID_1188_">
							<polygon id="XMLID_1189_" class="st2" points="231.7,64.6 231.7,65 229.7,66.1 229.7,65.9 							"/>
						</g>
						<g id="XMLID_1190_">
							<polygon id="XMLID_1191_" class="st2" points="229.7,65.9 229.7,66.1 227.6,65 227.6,64.7 							"/>
						</g>
						<g id="XMLID_1192_">
							<polygon id="XMLID_1193_" class="st14" points="231.7,64.6 229.7,65.9 227.6,64.7 229.7,63.4 							"/>
						</g>
					</g>
					<g id="XMLID_273_" class="st15">
						<g id="XMLID_1194_">
							<polygon id="XMLID_1195_" class="st2" points="234.4,66.1 234.4,66.4 232.3,67.7 232.3,67.3 							"/>
						</g>
						<g id="XMLID_1196_">
							<polygon id="XMLID_1197_" class="st2" points="232.3,67.3 232.3,67.7 230.3,66.5 230.3,66.1 							"/>
						</g>
						<g id="XMLID_1198_">
							<polygon id="XMLID_1199_" class="st14" points="234.4,66.1 232.3,67.3 230.3,66.1 232.3,65 							"/>
						</g>
					</g>
					<g id="XMLID_266_" class="st15">
						<g id="XMLID_1200_">
							<polygon id="XMLID_1201_" class="st2" points="237,67.6 237,68 234.9,69.2 234.9,68.9 							"/>
						</g>
						<g id="XMLID_1202_">
							<polygon id="XMLID_1203_" class="st2" points="234.9,68.9 234.9,69.2 232.8,68 232.8,67.7 							"/>
						</g>
						<g id="XMLID_1204_">
							<polygon id="XMLID_1205_" class="st14" points="237,67.6 234.9,68.9 232.8,67.7 235,66.4 							"/>
						</g>
					</g>
					<g id="XMLID_259_" class="st15">
						<g id="XMLID_1206_">
							<polygon id="XMLID_1207_" class="st2" points="250.2,75.3 250.2,75.6 248.2,76.9 248.2,76.5 							"/>
						</g>
						<g id="XMLID_1208_">
							<polygon id="XMLID_1209_" class="st2" points="248.2,76.5 248.2,76.9 235.5,69.6 235.5,69.2 							"/>
						</g>
						<g id="XMLID_1210_">
							<polygon id="XMLID_1211_" class="st14" points="250.2,75.3 248.2,76.5 235.5,69.2 237.6,68 							"/>
						</g>
					</g>
					<g id="XMLID_252_" class="st15">
						<g id="XMLID_1212_">
							<polygon id="XMLID_1213_" class="st2" points="252.9,76.8 252.9,77.2 250.7,78.4 250.7,78.1 							"/>
						</g>
						<g id="XMLID_1214_">
							<polygon id="XMLID_1215_" class="st2" points="250.7,78.1 250.7,78.4 248.7,77.2 248.7,76.9 							"/>
						</g>
						<g id="XMLID_1216_">
							<polygon id="XMLID_1217_" class="st14" points="252.9,76.8 250.7,78.1 248.7,76.9 250.8,75.6 							"/>
						</g>
					</g>
					<g id="XMLID_245_" class="st15">
						<g id="XMLID_1218_">
							<polygon id="XMLID_1219_" class="st2" points="255.6,78.4 255.6,78.6 253.4,79.9 253.4,79.5 							"/>
						</g>
						<g id="XMLID_1220_">
							<polygon id="XMLID_1221_" class="st2" points="253.4,79.5 253.4,79.9 251.3,78.7 251.3,78.4 							"/>
						</g>
						<g id="XMLID_1222_">
							<polygon id="XMLID_1223_" class="st14" points="255.6,78.4 253.4,79.5 251.3,78.4 253.5,77.2 							"/>
						</g>
					</g>
					<g id="XMLID_238_" class="st15">
						<g id="XMLID_1224_">
							<polygon id="XMLID_1225_" class="st2" points="260.8,81.4 260.8,81.7 258.7,83 258.7,82.6 							"/>
						</g>
						<g id="XMLID_1226_">
							<polygon id="XMLID_1227_" class="st2" points="258.7,82.6 258.7,83 254,80.2 254,79.9 							"/>
						</g>
						<g id="XMLID_1228_">
							<polygon id="XMLID_1229_" class="st14" points="260.8,81.4 258.7,82.6 254,79.9 256,78.6 							"/>
						</g>
					</g>
				</g>
			</g>
		</g>
		<g id="XMLID_941_">
			<polygon id="XMLID_1673_" class="st19" points="245.7,52.8 269.8,66.6 269.8,49.3 269.8,49.3 245.7,35.3 			"/>
			<polygon id="XMLID_1672_" class="st28" points="268.1,50.9 259.6,46 259.6,58.1 268.1,63 			"/>
			<g id="XMLID_1230_">
				<polygon id="XMLID_1671_" class="st14" points="248.1,40.1 257.7,45.7 257.7,44.9 248.1,39.4 				"/>
				<polygon id="XMLID_1670_" class="st14" points="248.1,41.7 257.7,47.3 257.7,46.6 248.1,41 				"/>
				<polygon id="XMLID_1669_" class="st14" points="248.1,43.3 257.7,48.9 257.7,48.2 248.1,42.6 				"/>
				<polygon id="XMLID_1668_" class="st14" points="248.1,45 257.7,50.5 257.7,49.8 248.1,44.3 				"/>
				<polygon id="XMLID_1667_" class="st14" points="248.1,46.6 257.7,52.2 257.7,51.5 248.1,45.9 				"/>
				<polygon id="XMLID_1666_" class="st14" points="248.1,48.2 257.7,53.8 257.7,53.2 248.1,47.5 				"/>
				<polygon id="XMLID_1665_" class="st14" points="248.1,51.5 254.9,55.4 254.9,54.7 248.1,50.8 				"/>
				<polygon id="XMLID_1664_" class="st14" points="248.1,49.9 257.7,55.4 257.7,54.7 248.1,49.2 				"/>
			</g>
			<polygon id="XMLID_875_" class="st12" points="263.1,49.1 260.6,52.8 265.7,55.7 			"/>
			<polygon id="XMLID_1663_" class="st6" points="265.2,51.4 262.6,55 267.8,57.9 			"/>
			<path id="XMLID_876_" class="st11" d="M267.2,58.8c0,1.3-0.9,1.8-2,1.2c-1.1-0.6-2-2.2-2-3.4s0.9-1.8,2-1.2
				C266.3,56,267.2,57.5,267.2,58.8z"/>
		</g>
	</g>
	<g id="XMLID_1231_">
		<g id="XMLID_1232_">
			<polygon id="XMLID_1662_" class="st5" points="356,10.7 358.6,13.8 359.9,11.5 			"/>
			<polygon id="XMLID_1661_" class="st6" points="356,10.7 356.7,11.6 357.1,10.9 			"/>
		</g>
		<path id="XMLID_1660_" class="st6" d="M359.9,11.5c-0.2-0.1-0.4-0.1-0.7,0.1c-0.5,0.3-0.9,1-0.9,1.6c0,0.3,0.1,0.5,0.3,0.6l19,11
			c-0.2-0.1-0.3-0.3-0.3-0.6c0-0.6,0.4-1.3,0.9-1.6c0.3-0.1,0.5-0.2,0.7-0.1L359.9,11.5z"/>
		<g id="XMLID_1233_">
			<path id="XMLID_1234_" class="st4" d="M378.3,22.7c0.5-0.3,0.9-0.1,0.9,0.5s-0.4,1.3-0.9,1.6c-0.5,0.3-0.9,0.1-0.9-0.5
				C377.4,23.6,377.8,22.9,378.3,22.7z"/>
		</g>
	</g>
	<g id="XMLID_1235_">
		<g id="XMLID_1236_">
			<polygon id="XMLID_1659_" class="st5" points="365.1,12.3 367.6,15.3 368.9,13.1 			"/>
			<polygon id="XMLID_1658_" class="st11" points="365.1,12.3 365.8,13.1 366.2,12.5 			"/>
		</g>
		<path id="XMLID_1657_" class="st11" d="M368.9,13.1c-0.2-0.1-0.4-0.1-0.7,0.1c-0.5,0.3-0.9,1-0.9,1.6c0,0.3,0.1,0.5,0.3,0.6
			l12.3,7.2c-0.2-0.1-0.3-0.3-0.3-0.6c0-0.6,0.4-1.3,0.9-1.6c0.3-0.1,0.5-0.2,0.7-0.1L368.9,13.1z"/>
		<g id="XMLID_1237_">
			<path id="XMLID_1238_" class="st21" d="M380.5,20.3c0.5-0.3,0.9-0.1,0.9,0.5s-0.4,1.3-0.9,1.6c-0.5,0.3-0.9,0.1-0.9-0.5
				C379.6,21.3,380,20.6,380.5,20.3z"/>
		</g>
	</g>
	<g id="XMLID_1239_">
		<path id="XMLID_1656_" class="st4" d="M352.9,16.6c-0.1-0.1-0.2-0.2-0.2-0.3v2.4c0,0.1,0.1,0.2,0.2,0.3l2.7,1.6v-2.4L352.9,16.6z"
			/>
		<polygon id="XMLID_1240_" class="st32" points="359.2,16 359.2,18.3 355.6,20.4 355.6,18 		"/>
		<path id="XMLID_1241_" class="st6" d="M359.2,16l-3.5,2.1l-2.7-1.6c-0.3-0.1-0.3-0.4,0-0.5l2.7-1.6c0.3-0.1,0.7-0.1,0.9,0
			L359.2,16z"/>
		<polygon id="XMLID_1242_" class="st30" points="361,17 361,19.4 357.4,21.5 357.5,19.1 		"/>
		<polygon id="XMLID_1243_" class="st33" points="357.5,19.1 357.4,21.5 355.6,20.4 355.6,18 		"/>
		<polygon id="XMLID_1244_" class="st5" points="361,17 357.5,19.1 355.6,18 359.2,16 		"/>
		<path id="XMLID_1655_" class="st21" d="M363.7,19.1l-2.7,1.6c-0.3,0.1-0.7,0.1-0.9,0l-2.7-1.6v2.4l2.7,1.6c0.3,0.1,0.7,0.2,0.9,0
			l2.7-1.6c0.1-0.1,0.2-0.2,0.2-0.3v-2.4C363.9,19,363.8,19.1,363.7,19.1z"/>
		<path id="XMLID_1245_" class="st11" d="M363.7,18.6c0.3,0.1,0.3,0.4,0,0.5l-2.7,1.6c-0.3,0.1-0.7,0.1-0.9,0l-2.7-1.6L361,17
			L363.7,18.6z"/>
	</g>
	<g id="XMLID_1246_">
		<path id="XMLID_1654_" class="st5" d="M327.8-3.7l-38.1,22c-0.9,0.5-0.8,1.4,0.3,2L312,33c1,0.6,2.6,0.7,3.4,0.1l38.1-21.9
			c0.9-0.5,0.8-1.4-0.3-2l-22-12.7C330.2-4.1,328.7-4.2,327.8-3.7z"/>
		<g id="XMLID_1247_">
			<polygon id="XMLID_1653_" class="st34" points="331.1,3.5 333.7,2 348.2,10.4 345.7,11.8 			"/>
			<polygon id="XMLID_1652_" class="st34" points="325.8,6.5 328.3,5 342.8,13.5 340.4,15 			"/>
			<polygon id="XMLID_1651_" class="st34" points="320.4,9.6 323,8.2 337.5,16.6 335,18 			"/>
			<polygon id="XMLID_1650_" class="st34" points="315.1,12.7 317.5,11.2 332.1,19.7 329.7,21.1 			"/>
			<polygon id="XMLID_1647_" class="st34" points="309.7,15.8 312.2,14.4 326.8,22.8 324.2,24.2 			"/>
		</g>
		<g id="XMLID_1248_">
			<polygon id="XMLID_1646_" class="st8" points="331.1,3.5 333.7,2 337.3,4.1 334.8,5.5 			"/>
			<polygon id="XMLID_1645_" class="st12" points="325.8,6.5 328.3,5 336.7,10 334.3,11.4 			"/>
			<polygon id="XMLID_1643_" class="st6" points="320.4,9.6 323,8.2 329.2,11.7 326.6,13.2 			"/>
			<polygon id="XMLID_1642_" class="st14" points="315.1,12.7 317.5,11.2 328.1,17.3 325.6,18.8 			"/>
			<polygon id="XMLID_1641_" class="st11" points="309.7,15.8 312.2,14.4 324.6,21.5 322.1,22.9 			"/>
		</g>
		<g id="XMLID_1249_">
			<polygon id="XMLID_1639_" class="st34" points="320.8,25 312.7,29.7 313.7,30.3 321.9,25.6 			"/>
			<polygon id="XMLID_1637_" class="st34" points="318.3,23.6 310.3,28.3 311.3,28.9 319.4,24.2 			"/>
			<polygon id="XMLID_1626_" class="st34" points="316,22.2 307.8,26.9 308.9,27.5 317,22.8 			"/>
			<polygon id="XMLID_1573_" class="st34" points="313.5,20.8 305.4,25.5 306.4,26.1 314.6,21.4 			"/>
			<polygon id="XMLID_1572_" class="st34" points="311.1,19.4 303,24.1 304.1,24.7 312.1,20 			"/>
			<polygon id="XMLID_1568_" class="st34" points="308.7,18 300.5,22.7 301.6,23.2 309.7,18.6 			"/>
			<polygon id="XMLID_1564_" class="st34" points="303.8,15.2 298.2,18.4 299.1,19 304.9,15.8 			"/>
			<polygon id="XMLID_1562_" class="st34" points="306.2,16.6 298.1,21.3 299.1,21.9 307.3,17.2 			"/>
		</g>
		<polygon id="XMLID_1560_" class="st34" points="331.1,0.5 307.1,14.3 308.2,15 332.1,1.1 		"/>
	</g>
	<g id="XMLID_1250_">
		<polygon id="XMLID_1559_" class="st12" points="329.8,30.4 347,20.5 356.6,26.1 339.6,35.9 		"/>
		<polygon id="XMLID_1558_" class="st23" points="339.6,35.9 341.5,27.2 356.6,26.1 		"/>
		<polygon id="XMLID_1557_" class="st24" points="347,20.5 345,29.2 329.8,30.4 		"/>
	</g>
	<g id="XMLID_1251_">
		<polygon id="XMLID_1555_" class="st5" points="424.2,43.4 453.6,60.4 416.4,81.9 387,64.9 		"/>
		<g id="XMLID_1252_">
			<path id="XMLID_893_" class="st0" d="M416.2,65L416.2,65L416.2,65z"/>
			<path id="XMLID_892_" class="st11" d="M416.2,65L416.2,65L416.2,65z"/>
			<path id="XMLID_889_" class="st11" d="M416.2,65l-4-6.5c-1.6,0.3-3.1,0.9-4.4,1.6L416.2,65z"/>
			<path id="XMLID_885_" class="st4" d="M416.2,65l8.5-4.9c-3.3-2-8.3-2.5-12.5-1.6L416.2,65z"/>
			<path id="XMLID_884_" class="st11" d="M407.8,69.9l8.5-4.9l-11.9-0.9C403.8,66.2,405.1,68.4,407.8,69.9z"/>
			<path id="XMLID_882_" class="st6" d="M420.3,71.5c1.6-0.3,3.1-0.9,4.4-1.6c4.6-2.7,4.6-7.1,0-9.7l-8.5,4.9L420.3,71.5z"/>
			<path id="XMLID_881_" class="st12" d="M420.3,71.5l-4-6.5l-8.5,4.9C411.1,71.9,416.1,72.3,420.3,71.5z"/>
		</g>
		<path id="XMLID_1253_" class="st33" d="M440.3,64.3c-0.1,0-0.1,0-0.2,0l-22.1-12.8c-0.2-0.1-0.2-0.3-0.1-0.5s0.3-0.2,0.5-0.1
			l22.1,12.8c0.2,0.1,0.2,0.3,0.1,0.5C440.5,64.2,440.4,64.3,440.3,64.3z"/>
		<path id="XMLID_1254_" class="st33" d="M442.8,62.8c-0.1,0-0.1,0-0.2,0L420.5,50c-0.2-0.1-0.2-0.3-0.1-0.5s0.3-0.2,0.5-0.1
			L443,62.2c0.2,0.1,0.2,0.3,0.1,0.5C443.1,62.7,442.9,62.8,442.8,62.8z"/>
		<path id="XMLID_1255_" class="st33" d="M445.5,61.2c-0.1,0-0.1,0-0.2,0l-22.1-12.8c-0.2-0.1-0.2-0.3-0.1-0.5
			c0.1-0.2,0.3-0.2,0.5-0.1l22.1,12.8c0.2,0.1,0.2,0.3,0.1,0.5C445.7,61.2,445.6,61.2,445.5,61.2z"/>
	</g>
	<g id="XMLID_1256_">
		<g id="XMLID_142_" class="st15">
			<g id="XMLID_1258_">
				<path id="XMLID_1259_" class="st23" d="M447.7,83.3v4.1c0,0.6-0.4,1.1-1.1,1.5v-4.1C447.3,84.4,447.7,83.9,447.7,83.3z"/>
			</g>
			<g id="XMLID_1260_">
				<path id="XMLID_1261_" class="st24" d="M406.1,87.4v-4.1c0,0.6,0.4,1.1,1.1,1.6V89C406.4,88.5,406.1,88,406.1,87.4z"/>
			</g>
			<g id="XMLID_1262_">
				<polygon id="XMLID_1263_" class="st23" points="446.7,84.8 446.6,89 429.5,98.8 429.6,94.7 				"/>
			</g>
			<g id="XMLID_1264_">
				<polygon id="XMLID_1265_" class="st24" points="424.3,94.7 424.3,98.8 407.2,89 407.2,84.8 				"/>
			</g>
			<g id="XMLID_1266_">
				<path id="XMLID_1709_" class="st24" d="M429.6,94.7v4.1c-0.7,0.4-1.7,0.6-2.7,0.6s-1.9-0.2-2.7-0.6v-4.1
					c0.7,0.4,1.7,0.6,2.7,0.6C427.9,95.4,428.8,95.1,429.6,94.7z"/>
			</g>
			<g id="XMLID_1268_">
				<path id="XMLID_1269_" class="st12" d="M446.6,81.8c1.5,0.9,1.5,2.2,0,3.1l-17,9.9c-1.5,0.9-3.8,0.9-5.2,0l-17.1-9.9
					c-1.5-0.9-1.5-2.2,0-3.1l17-9.9c1.5-0.9,3.8-0.9,5.3,0L446.6,81.8z"/>
			</g>
		</g>
	</g>
	<g id="XMLID_1257_">
		<g id="XMLID_128_" class="st15">
			<g id="XMLID_1271_">
				<path id="XMLID_1272_" class="st20" d="M482,71.6v4.1c0,0.6-0.4,1.1-1.1,1.5V73C481.6,72.6,482,72.2,482,71.6z"/>
			</g>
			<g id="XMLID_1273_">
				<path id="XMLID_1274_" class="st22" d="M440.4,75.7v-4.1c0,0.6,0.4,1.1,1.1,1.6v4.1C440.8,76.8,440.4,76.2,440.4,75.7z"/>
			</g>
			<g id="XMLID_1275_">
				<polygon id="XMLID_1276_" class="st20" points="480.9,73 480.9,77.2 463.9,87.1 463.9,83 				"/>
			</g>
			<g id="XMLID_1277_">
				<polygon id="XMLID_1278_" class="st22" points="458.7,83 458.6,87.1 441.4,77.2 441.4,73 				"/>
			</g>
			<g id="XMLID_1279_">
				<path id="XMLID_1708_" class="st20" d="M463.9,83v4.1c-0.7,0.4-1.7,0.6-2.7,0.6s-1.9-0.2-2.7-0.6V83c0.7,0.4,1.7,0.6,2.7,0.6
					S463.2,83.4,463.9,83z"/>
			</g>
			<g id="XMLID_1281_">
				<path id="XMLID_1282_" class="st11" d="M480.9,70c1.5,0.9,1.5,2.2,0,3.1l-17,9.9c-1.5,0.9-3.8,0.9-5.2,0L441.5,73
					c-1.5-0.9-1.5-2.2,0-3.1l17-9.9c1.5-0.9,3.8-0.9,5.3,0L480.9,70z"/>
			</g>
		</g>
	</g>
	<path id="XMLID_1706_" class="st22" d="M461.2,83.6v4.1c-1,0-1.9-0.2-2.7-0.6V83C459.4,83.4,460.3,83.6,461.2,83.6z"/>
	<path id="XMLID_1705_" class="st23" d="M429.6,94.7v4.1c-0.7,0.4-1.7,0.6-2.7,0.6v-4.1C427.9,95.4,428.8,95.1,429.6,94.7z"/>
	<g id="XMLID_894_">
		<g id="XMLID_1516_">
			<path id="XMLID_1534_" class="st8" d="M467.2,64.7c-3.2,1.5-6.3,12.4-4.5,16.3c1.8,3.8,4.6,4.1,8.3,3.1s7.7-5.7,9.1-10.1
				C481.8,68,476.6,60.4,467.2,64.7z"/>
			<g id="XMLID_1521_">
				<g id="XMLID_1523_">
					<path id="XMLID_1533_" class="st2" d="M463.4,197v0.9c-1.8,1-5.6,0.5-6.6,0c-0.7-1-2.5-0.8-3.4-0.3c-3.8,0.3-5.3-0.2-6.6-1.2
						c-0.7-0.5-1.9-1.8-1.7-3.1C449.6,194.4,463.4,197,463.4,197z"/>
					<path id="XMLID_1532_" class="st2" d="M456.7,190.3c0,0-4.2,1.2-6.8,1.6c-2.5,0.4-4.3-0.1-4.9,0.8c-0.6,0.9,0.7,3.2,3,4
						c2.2,0.8,6.8-0.1,8.4,0.2c1.7,0.4,5.9,1.2,6.9,0.1s0-6.1,0-6.1L456.7,190.3z"/>
					<path id="XMLID_1531_" class="st2" d="M480.2,184.7l-7.6-8.5c-3.1-0.9-6.2-1.1-5.8,1.8c0.4,2.5,4.3,3.5,7,6l2.5,2.3
						C478.1,187.8,480.4,186.4,480.2,184.7L480.2,184.7z"/>
					<path id="XMLID_1530_" class="st8" d="M473,78.4c-0.3,0.3-0.6,0.6-1,0.9c-2,1.5-3.8,2.5-6.3,3.1c-0.4,0.1-0.8,0.2-1.2,0.3
						l0.2,2.2c2.6,0.7,5-0.4,6.8-0.9c1.3-0.4,3.3-0.7,3.3-2.1L473,78.4L473,78.4z"/>
					<path id="XMLID_1528_" class="st2" d="M476.4,186.2l-2.5-2.3c-2.8-2.4-6.7-3.4-7-6l0,0l0,0l0,0l0,0l0,0l0,0l0,0l0,0l0,0l0,0
						l0,0l0,0l0,0l0,0l0,0l0,0l0,0l0,0l0,0l0,0l0,0l0,0l0,0l0,0l0,0l0,0l0,0l0,0l0,0c0,0.2,0,0.5,0,0.9c0.4,2.5,4.3,3.5,7,6l2.5,2.3
						c2.2,1.9,4.3,0.5,3.8-2.3C480.4,186.4,478.1,187.8,476.4,186.2L476.4,186.2z"/>
					<path id="XMLID_1526_" class="st35" d="M480.2,125.8c2.7,3.7-3.9,14-2.2,26.8c1.2,8.7,3.5,23.2,3.1,31.4
						c-0.1,1.5-5.9,2.6-7.6-4.6c-2.7-12.3-6.1-20-7.3-29.5l0.6-27.7L480.2,125.8z"/>
					<path id="XMLID_1525_" class="st36" d="M471.8,124.4c0.7,11.5-7.5,25.6-7,34.8c0.6,9.5-0.5,21.3-0.5,31.6c0,0-8.5,4-8.9-2.2
						c-1.3-20.3-5.1-26.7,0.1-63.8L471.8,124.4z"/>
					<path id="XMLID_1524_" class="st14" d="M456.5,113.3c-0.3-11.1,1.8-22,1.8-22c1-1.5,2.2-2.7,3.6-3.6l2.8-3.2
						c2-0.5,3.8-1,5.7-1.6c3.1-1,6.3-0.9,9.3,0l0,0c4,1.7,4.7,4.4,3,9.5c0,0.2-3.5,14.5-3.9,18.8c0,0.4,3.1,11.9,3.7,16.6
						c0,0-3,2.7-3.7,3.3c-5.9,7.4-25.4-1.6-26.1-5.5C452.3,124,454.6,119.5,456.5,113.3z"/>
				</g>
			</g>
			<path id="XMLID_1518_" class="st2" d="M465.9,65.4c0,0-1,0.9-1.6,2.9c-0.6,1.9-0.4,3.2-0.5,4.2s-0.5,1.6-0.3,2.1
				c0.2,0.5,1.4-2.2,2.6-2.5c1.2-0.3,1,3.1-1.6,4.1c-1.1,1.7-0.2,5.7,0.4,6.6c0.6,0.9,4.3,2,7.5,0.9c3.1-1.1,5.2-4.2,7.9-8.5
				c2.6-4.1,0-7.2,0-7.2c1.3-2.9-8.5-6.5-12.5-6.6C465.4,61.3,465.9,65.4,465.9,65.4z"/>
		</g>
	</g>
	<g id="XMLID_663_">
		<path id="XMLID_901_" class="st14" d="M470.6,94.1c1.3-4.3-3.5-9.7-7.9-8.3c-1.6,0.5-2.9,1-3.6,2.4c-2,3.3-2.4,14.8-3.9,21.7
			c-0.3,0.1-0.5,0.1-0.8,0.1c2.7,3.5,3.8,5.3,6.2,8.6c0.2-0.1,0.4-0.2,0.5-0.2C461.7,118,470.6,94.1,470.6,94.1z"/>
	</g>
	<g id="XMLID_1478_">
		<path id="XMLID_1600_" class="st2" d="M268.3,226.9l7.1-0.7c0,0,4.5,1.3,7.3,1.7c2.7,0.4,4.6-0.1,5.2,0.9c0.1,0.2,0.2,0.4,0.2,0.7
			l0,0l0,0l0,0c0.1,1.4-1.1,2.8-1.8,3.2c-1.4,1-3,1.7-7.1,1.3c-1.1-0.4-3.1-0.7-3.7,0.4c-1.1,0.5-5.2,1.1-7.1,0v-0.9
			C267.3,232.5,268.3,226.9,268.3,226.9z"/>
		<path id="XMLID_1597_" class="st6" d="M265.2,161.4c-2.4,12.1,6.1,25.4,5.4,35.1c-0.9,13.4-1.5,19.3-2.9,30.2c0,0,5.4,3.2,9.4-0.5
			c4.1-21.4,5.9-25.2,5.3-64.4L265.2,161.4z"/>
		<g id="XMLID_1554_">
			<path id="XMLID_1595_" class="st25" d="M298.4,105.7c2.4,2.9,0.4,14.4-3,17.1c-3.3,2.8-6.2,1.8-9.1-0.7c-3-2.5-4.6-8.7-3.9-13.4
				C283.3,102.5,291.5,97.7,298.4,105.7z"/>
			<path id="XMLID_1556_" class="st14" d="M299.2,106.9c0,0,0.5,1.3,0.2,3.3c-0.3,2.1-1,3.1-1.4,4.1c-0.4,1-0.3,1.7-0.7,2
				c-0.4,0.4-0.3-2.7-1.3-3.4c-1-0.8-2.4,2.6-0.4,4.5c0.3,2-2.3,5.4-3.2,5.9c-1,0.6-4.9,0-7.4-2.5s-3-6.3-3.5-11.3
				c-0.6-5,3.1-6.7,3.1-6.7c0.1-3.2,10.7-2.4,14.6-0.6C301.6,103.4,299.2,106.9,299.2,106.9z"/>
		</g>
		<path id="XMLID_1552_" class="st2" d="M282,233.4l7.1-0.7c0,0,4.5,1.3,7.3,1.7c2.7,0.4,4.6-0.1,5.2,0.9c0.1,0.2,0.2,0.4,0.2,0.7
			l0,0l0,0l0,0c0.1,1.4-1.1,2.8-1.8,3.2c-1.4,1-3,1.7-7.1,1.3c-1.1-0.4-3.1-0.7-3.7,0.4c-1.1,0.5-5.2,1.1-7.1,0V240
			C280.9,238.9,282,233.4,282,233.4z"/>
		<path id="XMLID_1551_" class="st6" d="M270.6,164.5c-0.8,12.4,9.3,25.9,9.9,35.8c0.8,13.7,0.8,23.3,0.9,34.4c0,0,9.1,4.3,9.5-2.4
			c1.4-21.8,2.8-27.6-2.9-67.4L270.6,164.5z"/>
		<path id="XMLID_1481_" class="st11" d="M294.4,124.9c-5.1-2.6-13.3-9.4-20.1-0.4c-6.3,8.5-8.9,34-9.6,39.2
			c-1,6.9,18.2,10.6,22.5,10.4c1,0,1.6-0.5,1.9-1.5c0.4-1.3-0.7-2.2-0.4-3.3c0.2-0.7,0.6-1.2,1-1.8c0.4-0.5,0.8-1.1,0.9-1.8
			c0.2-1.1-0.5-2.2-0.7-3.2c-0.1-0.8,0.1-1.6,0.3-2.4c1.8-6.5,4.7-12.5,6.5-19.1c1.2-4.4,2.8-11.4-0.9-15.2
			C295.6,125.6,295,125,294.4,124.9z"/>
		<path id="XMLID_1480_" class="st11" d="M297.6,128.3c4,12.9,4.4,19.3,8.5,24.4c0.3,0.4,11.3,12.2,11.3,12.2s-1.5,2.7-5.3,3.3
			c-6.1-2.7-13.1-12.3-15-14.4c-1.1-1.2-7.2-12.3-8.1-18C288,130.2,295.9,123.2,297.6,128.3z"/>
	</g>
	<path id="XMLID_31_" class="st35" d="M454.3,119.3c4.4-0.3,6.7-0.9,6.7-0.9s5.3-11.5,6.8-17c0,0-2,11.8-3.2,15.6
		c-1.3,3.8-3.1,5.3-5.9,5c-2.9-0.3-5-0.9-5-0.9L454.3,119.3z"/>
</g>
</svg>
