<?xml version="1.0" encoding="utf-8"?>
<!-- Generator: Adobe Illustrator 22.1.0, SVG Export Plug-In . SVG Version: 6.00 Build 0)  -->
<svg version="1.1" xmlns="http://www.w3.org/2000/svg" xmlns:xlink="http://www.w3.org/1999/xlink" x="0px" y="0px"
	 viewBox="0 0 100.1 101" style="enable-background:new 0 0 100.1 101;" xml:space="preserve">
<style type="text/css">
	.st0{fill:#552F84;}
	.st1{fill:#FCBD40;}
	.st2{fill:#FCBD40;stroke:#FCBD40;stroke-width:0.5;stroke-linejoin:round;stroke-miterlimit:10;}
	.st3{fill:#9673B3;}
	.st4{fill:#FFFFFF;}
	.st5{fill:#010101;}
	.st6{fill:#FAFBFC;}
	.st7{fill:#FFFFFD;}
	.st8{fill:#A789BF;}
	.st9{fill:#BCBEC0;}
	.st10{fill:#FCBD40;stroke:#552F84;stroke-miterlimit:10;}
	.st11{fill:#7BBF43;}
	.st12{fill:#033855;}
	.st13{fill:#D8DADB;}
	.st14{opacity:0.47;fill:#DDE4EA;}
	.st15{fill:#6F5195;}
	.st16{fill:#8A72A9;}
	.st17{fill:#AA98C0;}
	.st18{fill:#FEC96A;}
	.st19{fill:#17375B;}
	.st20{fill:#E3DBED;}
	.st21{fill:#F5F6F6;}
	.st22{opacity:0.3;fill:#939598;}
	.st23{fill:#94815D;}
	.st24{fill:#FFEFE5;}
	.st25{fill:#EED5C2;}
	.st26{fill:#CFC6DC;}
	.st27{clip-path:url(#SVGID_2_);}
	.st28{fill:#F4A32B;}
	.st29{fill:none;stroke:#552F84;stroke-width:3;stroke-linecap:round;stroke-miterlimit:10;}
	.st30{fill-rule:evenodd;clip-rule:evenodd;fill:#9673B3;}
	.st31{filter:url(#Adobe_OpacityMaskFilter);}
	.st32{opacity:0.7;mask:url(#SVGID_6_);}
	.st33{fill-rule:evenodd;clip-rule:evenodd;}
	.st34{filter:url(#Adobe_OpacityMaskFilter_1_);}
	.st35{opacity:0.7;mask:url(#SVGID_7_);}
	.st36{filter:url(#Adobe_OpacityMaskFilter_2_);}
	.st37{opacity:0.7;mask:url(#SVGID_8_);}
	.st38{fill:#B9A2CE;}
	.st39{fill:#E99626;}
	.st40{fill:#F4D44D;}
	.st41{fill:#EAE9E8;}
	.st42{fill:#F6E7A1;}
	.st43{fill:#E8C83F;}
</style>
<g id="Titles">
</g>
<g id="User_friendly">
</g>
<g id="User_friendly_2">
</g>
<g id="User_Friendly_3">
</g>
<g id="Dedicated_NS">
</g>
<g id="Online_Domain_Registration">
</g>
<g id="Global">
</g>
<g id="Security">
</g>
<g id="Ns_management">
	<g>
		<g>
			<g>
				<path class="st0" d="M89,5.9l3.7,3.7v18L89,31.3H8.8L5,27.6v-18l3.7-3.7H89 M89.3,4H8.5C8.2,4,7.8,4.1,7.6,4.4L3.5,8.5
					C3.3,8.7,3.2,9,3.2,9.3v18.6c0,0.3,0.1,0.6,0.4,0.9l4.1,4.1c0.2,0.2,0.5,0.4,0.9,0.4h80.8c0.3,0,0.6-0.1,0.9-0.4l4.1-4.1
					c0.2-0.2,0.4-0.5,0.4-0.9V9.3c0-0.3-0.1-0.6-0.4-0.9l-4.1-4.1C89.9,4.1,89.6,4,89.3,4L89.3,4z"/>
				<rect x="27.3" y="27.2" class="st0" width="66.1" height="1.4"/>
				<rect x="4.4" y="27.2" class="st0" width="20.7" height="1.4"/>
				<circle class="st3" cx="20.2" cy="18.6" r="4.8"/>
				<path class="st0" d="M17.2,18.6c0,1.7,1.4,3.1,3.1,3.1s3.1-1.4,3.1-3.1s-1.4-3.1-3.1-3.1S17.2,16.9,17.2,18.6z"/>
			</g>
			<g>
				<path class="st0" d="M89,32.7l3.7,3.7v18L89,58.1H8.8L5,54.4v-18l3.7-3.7H89 M89.3,30.8H8.5c-0.3,0-0.6,0.1-0.9,0.4l-4.1,4.1
					c-0.2,0.2-0.4,0.5-0.4,0.9v18.6c0,0.3,0.1,0.6,0.4,0.9l4.1,4.1C7.8,59.9,8.2,60,8.5,60h80.8c0.3,0,0.6-0.1,0.9-0.4l4.1-4.1
					c0.2-0.2,0.4-0.5,0.4-0.9V36.1c0-0.3-0.1-0.6-0.4-0.9l-4.1-4.1C89.9,30.9,89.6,30.8,89.3,30.8L89.3,30.8z"/>
				<rect x="27.3" y="54" class="st0" width="66.1" height="1.4"/>
				<rect x="4.4" y="54" class="st0" width="20.7" height="1.4"/>
				<circle class="st3" cx="20.2" cy="45.4" r="4.8"/>
				<path class="st0" d="M17.2,45.4c0,1.7,1.4,3.1,3.1,3.1s3.1-1.4,3.1-3.1c0-1.7-1.4-3.1-3.1-3.1S17.2,43.7,17.2,45.4z"/>
				<circle class="st3" cx="20.6" cy="71.1" r="4.8"/>
				<path class="st0" d="M17.5,71.1c0,1.7,1.4,3.1,3.1,3.1c1.7,0,3.1-1.4,3.1-3.1S22.3,68,20.6,68C18.9,68,17.5,69.4,17.5,71.1z"/>
			</g>
			<g>
				<path class="st0" d="M89,59.5l3.7,3.7v18L89,84.9H8.8L5,81.2v-18l3.7-3.7H89 M89.3,57.6H8.5c-0.3,0-0.6,0.1-0.9,0.4l-4.1,4.1
					c-0.2,0.2-0.4,0.5-0.4,0.9v18.6c0,0.3,0.1,0.6,0.4,0.9l4.1,4.1c0.2,0.2,0.5,0.4,0.9,0.4h80.8c0.3,0,0.6-0.1,0.9-0.4l4.1-4.1
					c0.2-0.2,0.4-0.5,0.4-0.9V62.9c0-0.3-0.1-0.6-0.4-0.9l-4.1-4.1C89.9,57.7,89.6,57.6,89.3,57.6L89.3,57.6z"/>
				<g>
					<rect x="27.3" y="80.8" class="st0" width="66.1" height="1.4"/>
					<rect x="4.4" y="80.8" class="st0" width="20.7" height="1.4"/>
				</g>
			</g>
		</g>
		<rect x="81" y="11.3" transform="matrix(-1 -1.224647e-16 1.224647e-16 -1 167.1225 27.5596)" class="st0" width="5" height="5"/>
		
			<rect x="70.9" y="15.5" transform="matrix(-1 -1.224647e-16 1.224647e-16 -1 146.8358 36.1231)" class="st0" width="5" height="5"/>
		
			<rect x="61.1" y="19.4" transform="matrix(-1 -1.224647e-16 1.224647e-16 -1 127.2254 43.7417)" class="st0" width="5" height="5"/>
		
			<rect x="61.1" y="38.1" transform="matrix(-1 -1.224647e-16 1.224647e-16 -1 127.2254 81.1469)" class="st0" width="5" height="5"/>
		
			<rect x="61.1" y="38.1" transform="matrix(-1 -1.224647e-16 1.224647e-16 -1 127.2254 81.1469)" class="st0" width="5" height="5"/>
		
			<rect x="70.9" y="42.9" transform="matrix(-1 -1.224647e-16 1.224647e-16 -1 146.8358 90.8122)" class="st0" width="5" height="5"/>
		<rect x="81" y="46" transform="matrix(-1 -1.224647e-16 1.224647e-16 -1 167.1225 96.9408)" class="st0" width="5" height="5"/>
	</g>
	<circle class="st1" cx="79.6" cy="80.6" r="18.2"/>
	<g>
		<path class="st4" d="M89.2,82.2l0-0.2c0.1-0.4,0.1-0.9,0.1-1.4c0-0.5-0.1-0.9-0.1-1.4l0-0.2c0-0.3,0.1-0.6,0.3-0.8l2.9-2.1
			l-2.6-4.4l-3.3,1.5c-0.3,0.1-0.6,0.1-0.8-0.1l-0.2-0.1c-0.7-0.6-1.5-1-2.4-1.4L83,71.6c-0.3-0.1-0.5-0.4-0.5-0.7l-0.3-3.6h-5.1
			l-0.3,3.6c0,0.3-0.2,0.6-0.5,0.7l-0.2,0.1c-0.8,0.3-1.6,0.8-2.3,1.3l-0.2,0.1c-0.2,0.2-0.6,0.2-0.9,0.1l-3.3-1.5l-2.5,4.4l2.9,2.1
			c0.3,0.2,0.4,0.5,0.3,0.8l0,0.2c-0.2,0.9-0.2,1.8,0,2.7l0,0.2c0,0.3-0.1,0.6-0.3,0.8l-0.2,0.1l0,0l-2.9,2l2.5,4.4l3.3-1.5
			c0.3-0.1,0.6-0.1,0.8,0.1l0.2,0.1c0.7,0.6,1.5,1,2.4,1.4l0.2,0.1c0.3,0.1,0.5,0.4,0.5,0.7l0.3,3.5h5.1l0.3-3.5
			c0-0.3,0.2-0.6,0.5-0.7l0.2-0.1c0.8-0.3,1.6-0.8,2.3-1.3l0.2-0.1c0.2-0.2,0.6-0.2,0.9-0.1l3.3,1.5l2.6-4.4L89.5,83
			C89.3,82.8,89.1,82.5,89.2,82.2z M79.6,85.9c-3,0-5.3-2.3-5.3-5.3c0-3,2.3-5.3,5.3-5.3c3,0,5.3,2.3,5.3,5.3
			C85,83.6,82.6,85.9,79.6,85.9z"/>
	</g>
</g>
<g id="WHMCS_Module">
</g>
<g id="Buy_all_TLDs">
</g>
<g id="Cloud_Infrastructure">
</g>
<g id="_x37_Day_moneyback">
</g>
<g id="Backup">
</g>
<g id="Powerful_management">
</g>
<g id="Firewall">
</g>
<g id="Up_to_Date">
</g>
</svg>
